<?xml version="1.0" encoding="UTF-8" standalone="no"?>
<svg
   width="732.19786"
   height="575.59415"
   viewBox="0 0 732.19786 575.59415"
   version="1.1"
   id="svg72"
   sodipodi:docname="empleos.svg"
   inkscape:version="1.2.2 (b0a8486541, 2022-12-01)"
   xmlns:inkscape="http://www.inkscape.org/namespaces/inkscape"
   xmlns:sodipodi="http://sodipodi.sourceforge.net/DTD/sodipodi-0.dtd"
   xmlns="http://www.w3.org/2000/svg"
   xmlns:svg="http://www.w3.org/2000/svg">
  <defs
     id="defs76" />
  <sodipodi:namedview
     id="namedview74"
     pagecolor="#ffffff"
     bordercolor="#000000"
     borderopacity="0.25"
     inkscape:showpageshadow="2"
     inkscape:pageopacity="0.0"
     inkscape:pagecheckerboard="0"
     inkscape:deskcolor="#d1d1d1"
     showgrid="false"
     inkscape:zoom="0.82175953"
     inkscape:cx="370.54636"
     inkscape:cy="293.88159"
     inkscape:window-width="1300"
     inkscape:window-height="699"
     inkscape:window-x="0"
     inkscape:window-y="0"
     inkscape:window-maximized="1"
     inkscape:current-layer="svg72" />
  <path
     d="m 278.04491,272.32251 c 0,1.84239 -1.49353,3.33594 -3.33594,3.33594 -1.84241,0 -3.33594,-1.49355 -3.33594,-3.33594 v -25.30643 l -7.64597,7.65263 c -1.30441,1.30441 -3.41928,1.30441 -4.72369,0 -1.30441,-1.30441 -1.30441,-3.41928 0,-4.72369 l 13.34375,-13.34375 c 1.30112,-1.30441 3.4133,-1.30708 4.71774,-0.006 l 0.006,0.006 13.34375,13.34375 c 1.30438,1.30441 1.30438,3.41928 0,4.72369 -1.30438,1.30441 -3.41925,1.30441 -4.72369,0 l -7.646,-7.65263 v 25.30643 z"
     fill="#6c63ff"
     id="path56" />
  <path
     d="m 314.74022,289.00219 v -63.38281 l -30.02344,-30.02344 h -36.69531 c -7.36954,0 -13.34375,5.9742 -13.34375,13.34375 v 80.0625 c 0,7.36955 5.97421,13.34375 13.34375,13.34375 h 53.375 c 7.36957,0 13.34375,-5.9742 13.34375,-13.34375 z m -30.02344,-73.39062 c 0,5.52716 4.48065,10.00781 10.00781,10.00781 h 13.34375 v 63.38281 c 0,3.68478 -2.98712,6.67188 -6.67188,6.67188 h -53.375 c -3.68478,0 -6.67188,-2.98711 -6.67188,-6.67188 v -80.0625 c 0,-3.68477 2.98709,-6.67188 6.67188,-6.67188 h 36.69531 v 13.34375 z"
     fill="#6c63ff"
     id="path58" />
  <g
     id="g1618"
     transform="matrix(0.77050062,0,0,0.77050062,-58.013439,92.442012)">
    <g
       id="g10"
       transform="translate(133.05101,-0.24718302)">
      <rect
         x="88.319427"
         y="73.527924"
         width="95.623589"
         height="90.677597"
         transform="rotate(-6.71736,136.13119,118.86672)"
         fill="#2f2e41"
         id="rect2" />
      <circle
         cx="129.77325"
         cy="73.534531"
         r="46.623981"
         fill="#ffb6b6"
         id="circle4" />
      <path
         d="m 99.03341,1.22034 h 8e-5 C 69.9788,9.28641 72.68475,20.11698 63.88113,26.94162 48.37101,38.96515 45.20477,68.78341 56.27885,86.90961 c 2.95883,4.84312 8.74844,11.24349 7.22634,19.06984 -1.16854,6.00787 -6.10076,10.05178 -7.02968,10.78839 -7.60336,6.02855 -2.95686,-0.62528 -6.16383,4.04613 -3.53971,5.15617 3.57434,11.0127 0.67677,19.84121 -2.56862,7.8268 -9.73949,8.0363 -10.11161,12.81153 -0.64091,8.22292 19.48148,22.2348 38.72188,18.68042 17.13102,-3.16463 28.23715,-19.2708 30.91338,-33.52235 1.79253,-9.54671 1.16755,-25.53096 -7.13171,-32.36164 -1.16407,-0.95801 -4.30644,-3.23996 -7.51371,-7.41543 -2.538,-3.30428 -5.87931,-7.65394 -4.62471,-11.07584 1.33645,-3.64554 6.48778,-2.41635 9.2456,-6.06922 3.74022,-4.95387 -2.21238,-11.87816 -2.31418,-19.64839 -0.17205,-13.15743 16.40269,-30.95883 36.21121,-30.82624 22.47135,0.15027 33.43101,23.27567 34.58128,25.80842 2.38416,5.24944 2.97096,10.5306 4.14442,21.0929 1.68442,15.15769 2.73968,24.65812 -0.86227,34.96319 -5.18075,14.82173 -14.06278,14.33248 -15.31113,25.04441 -1.94595,16.70153 18.13237,30.88011 20.42352,32.45619 16.98631,11.68365 40.71881,13.00295 43.92149,6.44748 2.8858,-5.90735 -13.6288,-12.62274 -15.12563,-29.75999 -1.29732,-14.85098 10.1474,-20.77267 6.35285,-30.62969 -4.17655,-10.85036 -19.13236,-6.50143 -27.06749,-18.39297 -7.40658,-11.0996 2.90841,-18.95684 -1.73936,-42.95719 C 182.71893,50.22378 179.37936,35.71363 168.19092,22.26603 163.26186,16.34163 158.24877,10.3163 149.88874,7.8209 140.52987,5.02733 114.40276,-3.04642 99.03361,1.22022 l -1.8e-4,1.3e-4 z"
         fill="#2f2e41"
         id="path6" />
      <path
         d="m 84.20655,44.46853 c 2.39547,9.99766 18.20607,13.17328 24.85159,13.67373 2.81458,0.21205 12.32589,0.92817 21.09289,-4.14435 3.24035,-1.875 4.32733,-3.35345 7.80109,-4.23898 4.70304,-1.1988 7.32434,0.33495 15.12198,1.53905 8.67083,1.33895 13.00647,2.00854 14.92914,-0.09828 3.14309,-3.44391 -0.7139,-13.04515 -5.58893,-19.26266 -9.01408,-11.49655 -23.29574,-13.7032 -29.95657,-14.73258 -7.61007,-1.17595 -23.05312,-3.56235 -35.82913,5.88005 -1.70816,1.2624 -14.85584,11.22628 -12.42213,21.384 h 8e-5 z"
         fill="#2f2e41"
         id="path8" />
    </g>
    <path
       d="m 317.399,566.77403 c -23.12012,5.60791 -47.27298,8.57294 -72.11433,8.57294 -26.90682,0 -53.01412,-3.47583 -77.86659,-10.02765 -2.70956,-10.02759 -5.78561,-21.13232 -9.27245,-33.41418 -31.28216,-110.28137 32.09272,-188.47003 32.09272,-188.47003 l 15.63552,-12.33737 140.74174,18.92249 c 16.37952,79.85437 5.71898,139.10938 -29.21663,216.75388 l 2e-5,-6e-5 z"
       fill="#2f2e41"
       id="path28" />
    <polygon
       points="62.66086,315.70386 56.07677,343.68625 212.44892,350.27033 204.2188,310.76578 215.74097,165.91581 161.42223,132.99535 95.58132,126.41126 47.84666,167.56182 "
       fill="#6c63ff"
       id="polygon30"
       transform="translate(133.05101,-0.24718302)" />
    <rect
       x="210.52608"
       y="210.11124"
       width="105.34544"
       height="164.60225"
       fill="#ffffff"
       id="rect32" />
    <path
       d="m 300.83953,231.76607 h -29.43517 c -0.79613,0 -1.44383,-0.64772 -1.44383,-1.44383 0,-0.79611 0.64772,-1.44383 1.44383,-1.44383 h 29.43517 c 0.79613,0 1.44383,0.64772 1.44383,1.44383 0,0.79611 -0.64772,1.44383 -1.44383,1.44383 z"
       fill="#6c63ff"
       id="path34" />
    <path
       d="m 300.83953,242.87084 h -29.43517 c -0.79613,0 -1.44383,-0.64772 -1.44383,-1.44383 0,-0.79611 0.64772,-1.44383 1.44383,-1.44383 h 29.43517 c 0.79613,0 1.44383,0.64772 1.44383,1.44383 0,0.79611 -0.64772,1.44383 -1.44383,1.44383 z"
       fill="#6c63ff"
       id="path36" />
    <path
       d="m 300.83953,253.9756 h -29.43517 c -0.79613,0 -1.44383,-0.64771 -1.44383,-1.44382 0,-0.79611 0.64772,-1.44382 1.44383,-1.44382 h 29.43517 c 0.79613,0 1.44383,0.64771 1.44383,1.44382 0,0.79611 -0.64772,1.44382 -1.44383,1.44382 z"
       fill="#6c63ff"
       id="path38" />
    <path
       d="m 299.5185,292.84227 h -71.57658 c -1.9359,0 -3.51093,-1.57504 -3.51093,-3.51093 0,-1.93589 1.57503,-3.51093 3.51093,-3.51093 h 71.57658 c 1.9359,0 3.51093,1.57504 3.51093,3.51093 0,1.93589 -1.57503,3.51093 -3.51093,3.51093 z"
       fill="#e6e6e6"
       id="path40" />
    <path
       id="b-97"
       d="m 259.25212,356.77318 c 14.24146,4.46347 28.08838,0.73328 30.92747,-8.33054 2.83909,-9.06382 -6.40411,-20.02698 -20.65126,-24.49014 -5.66669,-1.8609 -11.69664,-2.33771 -17.58535,-1.39047 l -60.58049,-18.14993 -38.44721,27.50479 91.0975,15.96051 c 4.29645,4.13977 9.52204,7.19016 15.23933,8.89578 z"
       fill="#ffb6b6" />
    <path
       d="m 187.10218,164.0226 c 0,0 -22.07198,12.61256 -28.37826,39.41425 l -25.22513,107.20678 c 0,0 -4.72971,15.76569 16.55399,23.64856 21.2837,7.88284 47.2971,-26.0134 47.2971,-26.0134 l -11.88014,-11.88013 22.91613,-100.05634 -21.2837,-32.31969 v -5e-5 z"
       fill="#6c63ff"
       id="path43" />
    <path
       id="c-98"
       d="m 242.83211,340.92781 c -14.80532,1.88269 -27.77766,-4.23041 -28.97426,-13.6528 -1.1966,-9.42239 9.83472,-18.58417 24.64556,-20.46552 5.90602,-0.83267 11.92557,-0.23889 17.55503,1.73175 l 62.83147,-7.18478 32.99562,33.85248 -92.48442,-0.35074 c -4.95902,3.31744 -10.64056,5.39871 -16.569,6.06961 z"
       fill="#ffb6b6" />
    <path
       d="m 347.83528,163.91728 c 0,0 19.50253,16.30646 20.98466,43.80014 l 5.92856,109.97476 c 0,0 1.87601,16.35263 -20.4641,20.3595 -22.34011,4.00687 -41.96983,-33.94476 -41.96983,-33.94476 l 13.7886,-9.59946 -4.91643,-102.52927 26.64851,-28.06091 h 2e-5 z"
       fill="#6c63ff"
       id="path46" />
    <rect
       x="222.04825"
       y="221.63339"
       width="37.858521"
       height="46.088638"
       fill="#6c63ff"
       id="rect48" />
    <path
       d="m 232.15484,256.0352 -2.60074,11.39056 -0.0658,0.29626 h -7.4071 c 0.88882,-3.75299 1.99162,-8.39478 2.50189,-10.61688 0.64197,-2.69949 2.32095,-4.44427 3.3908,-5.31662 0.54322,-0.47742 0.93824,-0.69141 0.93824,-0.69141 l 3.24272,4.93808 h -2e-5 z"
       fill="#e6e6e6"
       id="path50" />
    <path
       d="m 257.15792,267.72203 h -7.20959 l -0.59254,-12.36166 3.95039,-4.16449 0.11523,-0.11514 c 0,0 2.9793,2.48541 3.19329,6.68286 0.11523,2.09039 0.3457,6.28772 0.54321,9.95844 z"
       fill="#e6e6e6"
       id="path52" />
    <g
       id="g68"
       transform="translate(133.05101,-0.24718302)">
      <rect
         x="102.55623"
         y="237.41272"
         width="12.96611"
         height="12.29546"
         transform="rotate(-6.71736,109.03924,243.56035)"
         fill="#2f2e41"
         id="rect60" />
      <circle
         cx="108.17718"
         cy="237.4136"
         r="6.32199"
         fill="#ffb6b6"
         id="circle62" />
      <path
         d="m 104.009,227.60815 h 1e-5 c -3.93968,1.09372 -3.57277,2.5623 -4.7665,3.48768 -2.1031,1.63033 -2.53243,5.67355 -1.03083,8.13138 0.4012,0.6567 1.18625,1.52456 0.97986,2.58578 -0.15845,0.81464 -0.82723,1.36297 -0.95319,1.46285 -1.03098,0.81744 -0.40094,-0.0848 -0.83579,0.54864 -0.47997,0.69915 0.48466,1.49327 0.09177,2.69038 -0.34829,1.06128 -1.32063,1.08968 -1.37109,1.73718 -0.0869,1.11499 2.6416,3.01494 5.25051,2.53298 2.32289,-0.42911 3.82883,-2.61303 4.19171,-4.54547 0.24306,-1.29449 0.15831,-3.46188 -0.96703,-4.38809 -0.15784,-0.1299 -0.58393,-0.43932 -1.01882,-1.0055 -0.34414,-0.44804 -0.79721,-1.03784 -0.62709,-1.50183 0.18122,-0.49432 0.87971,-0.32765 1.25366,-0.82296 0.50716,-0.67172 -0.29999,-1.61062 -0.31379,-2.66423 -0.0233,-1.78409 2.22413,-4.19787 4.91007,-4.17989 3.04701,0.0204 4.53309,3.15607 4.68906,3.4995 0.32328,0.7118 0.40285,1.4279 0.56196,2.8601 0.2284,2.05531 0.37149,3.34353 -0.11692,4.74084 -0.70249,2.00976 -1.90685,1.94342 -2.07612,3.3959 -0.26386,2.26465 2.45866,4.1872 2.76933,4.40091 2.30326,1.58425 5.52128,1.76314 5.95555,0.87425 0.3913,-0.80101 -1.848,-1.71158 -2.05096,-4.03532 -0.17591,-2.01372 1.37594,-2.81668 0.86142,-4.15324 -0.56632,-1.47126 -2.59426,-0.88156 -3.67022,-2.494 -1.0043,-1.50505 0.39437,-2.57046 -0.23585,-5.82479 -0.13334,-0.68842 -0.58617,-2.65592 -2.10327,-4.47936 -0.66836,-0.80332 -1.34811,-1.62033 -2.48169,-1.95869 -1.26902,-0.37879 -4.81173,-1.47356 -6.89572,-0.89502 l -2e-5,2e-5 z"
         fill="#2f2e41"
         id="path64" />
      <path
         d="m 101.99855,233.4724 c 0.32481,1.35564 2.46866,1.78624 3.36976,1.85409 0.38164,0.0288 1.67133,0.12586 2.8601,-0.56195 0.43938,-0.25424 0.58677,-0.45471 1.05779,-0.57479 0.63771,-0.16255 0.99315,0.0454 2.05047,0.20869 1.17572,0.18156 1.76362,0.27235 2.02432,-0.0133 0.42619,-0.46698 -0.0968,-1.76886 -0.75783,-2.61193 -1.22227,-1.55888 -3.15879,-1.85809 -4.06197,-1.99767 -1.03189,-0.15945 -3.1259,-0.48304 -4.85826,0.79731 -0.23162,0.17118 -2.01438,1.52223 -1.68438,2.89957 h 1e-5 z"
         fill="#2f2e41"
         id="path66" />
    </g>
    <polygon
       points="96.50309,267.67292 94.92287,252.03571 94.90649,251.85456 99.71286,247.72313 101.19421,246.4392 102.19836,245.58323 104.78263,245.84665 112.22258,246.58738 112.23906,246.58738 114.74105,248.1017 118.47745,250.3732 120.25518,251.44306 120.5186,251.60773 119.21818,267.96921 96.51956,267.96921 "
       fill="#e6e6e6"
       id="polygon70"
       transform="translate(133.05101,-0.24718302)" />
  </g>
</svg>
