<?xml version="1.0" encoding="UTF-8" standalone="no"?>
<svg
   data-name="Layer 1"
   width="909"
   height="529.32087"
   viewBox="0 0 909 529.32087"
   version="1.1"
   id="svg50"
   sodipodi:docname="undraw_ordinary_day_re_v5hy.svg"
   inkscape:version="1.3 (1:1.3+202307231459+0e150ed6c4)"
   xmlns:inkscape="http://www.inkscape.org/namespaces/inkscape"
   xmlns:sodipodi="http://sodipodi.sourceforge.net/DTD/sodipodi-0.dtd"
   xmlns="http://www.w3.org/2000/svg"
   xmlns:svg="http://www.w3.org/2000/svg">
  <defs
     id="defs50" />
  <sodipodi:namedview
     id="namedview50"
     pagecolor="#ffffff"
     bordercolor="#000000"
     borderopacity="0.25"
     inkscape:showpageshadow="2"
     inkscape:pageopacity="0.0"
     inkscape:pagecheckerboard="0"
     inkscape:deskcolor="#d1d1d1"
     inkscape:zoom="2.0318624"
     inkscape:cx="188.7431"
     inkscape:cy="424.73349"
     inkscape:window-width="1294"
     inkscape:window-height="704"
     inkscape:window-x="72"
     inkscape:window-y="27"
     inkscape:window-maximized="1"
     inkscape:current-layer="svg50" />
  <circle
     cx="248.18685"
     cy="402.13952"
     r="44.68221"
     fill="#6c63ff"
     id="circle1" />
  <path
     d="M360.695,557.63488a44.68569,44.68569,0,0,0,74.45376,47.29035A44.68606,44.68606,0,1,1,360.695,557.63488Z"
     transform="translate(-145.5 -185.33957)"
     opacity="0.2"
     style="isolation:isolate"
     id="path1" />
  <polygon
     points="248.31 402.139 248.432 402.139 250.642 528.821 245.977 528.821 248.31 402.139"
     fill="#3f3d56"
     id="polygon1" />
  <circle
     cx="157.78162"
     cy="273.4083"
     r="90.08744"
     fill="#6c63ff"
     id="circle2" />
  <path
     d="M236.764,398.57653a90.09446,90.09446,0,0,0,150.1123,95.34591A90.0952,90.0952,0,1,1,236.764,398.57653Z"
     transform="translate(-145.5 -185.33957)"
     opacity="0.2"
     style="isolation:isolate"
     id="path2" />
  <polygon
     points="158.029 273.408 158.277 273.408 162.732 528.821 153.327 528.821 158.029 273.408"
     fill="#3f3d56"
     id="polygon2" />
  <rect
     x="338.809"
     y="396.62069"
     width="412.92155"
     height="122.40757"
     fill="#f0f0f0"
     id="rect2" />
  <rect
     x="521.19629"
     y="421.91825"
     width="48.14698"
     height="97.11001"
     fill="#cacaca"
     id="rect3" />
  <rect
     x="362.88249"
     y="252.17975"
     width="364.77457"
     height="112.61497"
     fill="#f0f0f0"
     id="rect4" />
  <path
     d="M910.13873,444.45574H471.40082a3.67218,3.67218,0,0,1-2.54478-6.31961l119.90743-115.256v-50.203a3.67636,3.67636,0,0,1,3.67222-3.67222h23.66547a3.67624,3.67624,0,0,1,3.67222,3.67222V293.0736l9.05685-8.70561a81.37342,81.37342,0,0,1,110.80037-1.84248l172.96346,155.527a3.67253,3.67253,0,0,1-2.45533,6.40328Z"
     transform="translate(-145.5 -185.33957)"
     fill="#cacaca"
     id="path4" />
  <path
     d="M459.17643,280.74152h0a23.25742,23.25742,0,0,1,23.25742,23.25742v31.418a0,0,0,0,1,0,0H435.919a0,0,0,0,1,0,0v-31.418a23.25742,23.25742,0,0,1,23.25742-23.25742Z"
     fill="#fff"
     id="path5" />
  <path
     d="M545.26975,281.14954h0A23.25742,23.25742,0,0,1,568.52722,304.407v31.418a0,0,0,0,1,0,0H522.01234a0,0,0,0,1,0,0V304.407A23.25742,23.25742,0,0,1,545.26975,281.14954Z"
     fill="#fff"
     id="path6" />
  <path
     d="M631.36308,281.55757h0A23.25742,23.25742,0,0,1,654.62054,304.815v31.418a0,0,0,0,1,0,0H608.10567a0,0,0,0,1,0,0V304.815A23.25742,23.25742,0,0,1,631.36308,281.55757Z"
     fill="#fff"
     id="path7" />
  <path
     d="M665.6372,420.69418h0a23.25742,23.25742,0,0,1,23.25742,23.25742v31.418a0,0,0,0,1,0,0H642.37979a0,0,0,0,1,0,0v-31.418A23.25742,23.25742,0,0,1,665.6372,420.69418Z"
     fill="#fff"
     id="path8" />
  <path
     d="M435.511,420.69418h0a23.25742,23.25742,0,0,1,23.25742,23.25742v31.418a0,0,0,0,1,0,0H412.25355a0,0,0,0,1,0,0v-31.418A23.25742,23.25742,0,0,1,435.511,420.69418Z"
     fill="#fff"
     id="path9" />
  <path
     d="M957.55673,583.87153l-77.45945-34.27412a3.26367,3.26367,0,0,0-1.32071-.27918H509.61772a3.26265,3.26265,0,0,0-1.22925.24028l-84.31459,34.27412a3.26423,3.26423,0,0,0,1.22925,6.28813H447.1787v112.615h-2.44815v11.4247H936.809v-11.4247h-4.08025v-112.615H956.236A3.26418,3.26418,0,0,0,957.55673,583.87153Zm-31.35638,118.8642H453.70711v-112.615H926.20035Z"
     transform="translate(-145.5 -185.33957)"
     fill="#cacaca"
     id="path10" />
  <rect
     x="428.57456"
     y="330.92862"
     width="59.57169"
     height="9.79261"
     fill="#cacaca"
     id="rect10" />
  <rect
     x="515.89196"
     y="330.92862"
     width="59.57169"
     height="9.79261"
     fill="#cacaca"
     id="rect11" />
  <rect
     x="603.20936"
     y="330.92862"
     width="59.57169"
     height="9.79261"
     fill="#cacaca"
     id="rect12" />
  <rect
     x="635.85138"
     y="472.10536"
     width="59.57169"
     height="9.79261"
     fill="#cacaca"
     id="rect13" />
  <rect
     x="404.90909"
     y="472.10536"
     width="59.57169"
     height="9.79261"
     fill="#cacaca"
     id="rect14" />
  <path
     d="M1053.5,714.66043h-907a1,1,0,0,1,0-2h907a1,1,0,0,1,0,2Z"
     transform="translate(-145.5 -185.33957)"
     fill="#3f3d56"
     id="path14" />
  <path
     d="M813.48835,630.319l-.28231-3.51428c-.36586-1.37908-3.81017,2.94754-4.22114,3.0416a10.22236,10.22236,0,0,0-3.30859-.14891c.14749-6.30618-.82252-3.44705-3.63995-.60126-9.07787,4.60139-5.74873,19.13987,4.58718,19.21311C816.04832,648.85767,820.73664,636.04758,813.48835,630.319Z"
     transform="translate(-145.5 -185.33957)"
     fill="#3f3d56"
     id="path15" />
  <path
     d="M814.76417,644.58029c3.75891-.05978,8.48791,13.13153-.4199,13.19989-4.60923.03537-12.76915.93432-12.76915.93432s-6.3431-9.51977-3.51413-15.44237Z"
     transform="translate(-145.5 -185.33957)"
     fill="#3f3d56"
     id="path16" />
  <polyline
     points="660.996 466.212 660.996 473.046 664.191 473.046 666.726 466.087"
     fill="#3f3d56"
     id="polyline16" />
  <path
     d="M809.69128,658.51048c-.06488-.072-3.455.15415-3.32-.1245l.00006-6.83466c.56506-.91558.11168,6.79833.24916,6.71h2.98358c.14679-.086,2.35234-7.08645,2.66468-6.95145a.12421.12421,0,0,1,.07477.15951C812.22505,651.55438,809.93034,658.55332,809.69128,658.51048Z"
     transform="translate(-145.5 -185.33957)"
     fill="#fff"
     id="path17" />
  <path
     d="M817.39641,657.967c.08986,1.1234-5.32252,1.12341-5.23223-.00014C812.07432,656.84365,817.48669,656.84363,817.39641,657.967Z"
     transform="translate(-145.5 -185.33957)"
     fill="#3f3d56"
     id="path18" />
  <path
     d="M813.4722,657.21964c-.31255.07622-1.36853-5.1088,1.84239-5.842C812.18967,653.043,813.79994,656.89232,813.4722,657.21964Z"
     transform="translate(-145.5 -185.33957)"
     fill="#fff"
     id="path19" />
  <path
     d="M817.91,656.081c-.01756-.02514-.03032-.05162-.04556-.0774l-.40838.015Z"
     transform="translate(-145.5 -185.33957)"
     fill="#3f3d56"
     id="path20" />
  <path
     d="M831.48551,652.132c-1.84024-2.73794-5.39558-1.49323-6.7866,1.01105-1.6503,3.02144-8.69959.7741-7.82022,4.83193C821.28115,657.04574,834.30821,660.22415,831.48551,652.132Z"
     transform="translate(-145.5 -185.33957)"
     fill="#3f3d56"
     id="path21" />
  <path
     d="M806.08022,647.40956c-2.89088.56438-7.98894-3.01744-8.12521-4.07278a.12442.12442,0,0,1,.21211-.12992,9.16283,9.16283,0,0,0,3.91024,3.15852c2.43589,1.23369,6.88606,1.26205,12.79452-1.84792A15.81562,15.81562,0,0,1,806.08022,647.40956Z"
     transform="translate(-145.5 -185.33957)"
     fill="#fff"
     id="path22" />
  <path
     d="M806.6205,641.08685c-.65292.20313-1.21927-1.37243-.62279-.87223a.6235.6235,0,0,0,.62279.62308c.53223.05242.50684-.52871.74731-.74759C807.78339,640.42393,807.07167,641.14983,806.6205,641.08685Z"
     transform="translate(-145.5 -185.33957)"
     fill="#fff"
     id="path23" />
  <path
     d="M805.437,657.98815c-.2477.03355-1.99535-6.24176-2.11211-6.33686a.12473.12473,0,0,1,.081-.15635c.32624-.13026,2.002,6.24718,2.15008,6.3309A.12543.12543,0,0,1,805.437,657.98815Z"
     transform="translate(-145.5 -185.33957)"
     fill="#fff"
     id="path24" />
  <path
     d="M810.66925,658.83908c.08986,1.1234-5.32252,1.12341-5.23223-.00014C805.34715,657.71569,810.75953,657.71567,810.66925,658.83908Z"
     transform="translate(-145.5 -185.33957)"
     fill="#3f3d56"
     id="path25" />
  <path
     d="M806.43363,658.7145c.08986,1.1234-5.32252,1.12342-5.23223-.00014C801.11153,657.59111,806.52391,657.59109,806.43363,658.7145Z"
     transform="translate(-145.5 -185.33957)"
     fill="#3f3d56"
     id="path26" />
  <path
     d="M807.6794,638.6576c.032.49434-2.02535.49435-1.99323-.00006C805.65421,638.16326,807.71151,638.16325,807.6794,638.6576Z"
     transform="translate(-145.5 -185.33957)"
     fill="#fff"
     id="path27" />
  <path
     d="M799.98154,638.6857a3.0468,3.0468,0,0,1,4.6642,0c3.21343-2.97958-1.53893-7.95828-4.66441-4.88561A3.37993,3.37993,0,0,0,799.98154,638.6857Z"
     transform="translate(-145.5 -185.33957)"
     fill="#fff"
     id="path28" />
  <path
     d="M809.1004,638.6857a3.0468,3.0468,0,0,1,4.6642,0c3.21343-2.97957-1.53892-7.95828-4.6644-4.88561A3.37993,3.37993,0,0,0,809.1004,638.6857Z"
     transform="translate(-145.5 -185.33957)"
     fill="#fff"
     id="path29" />
  <path
     d="M800.833,635.40952a1.1622,1.1622,0,0,1-.00011,2.32354A1.1622,1.1622,0,0,1,800.833,635.40952Z"
     transform="translate(-145.5 -185.33957)"
     fill="#3f3d56"
     id="path30" />
  <path
     d="M809.95149,635.40952a1.1622,1.1622,0,0,1-.0001,2.32354A1.1622,1.1622,0,0,1,809.95149,635.40952Z"
     transform="translate(-145.5 -185.33957)"
     fill="#3f3d56"
     id="path31" />
  <path
     d="M811.54123,639.10817a1.01841,1.01841,0,0,1-.00009,2.03607A1.01841,1.01841,0,0,1,811.54123,639.10817Z"
     transform="translate(-145.5 -185.33957)"
     fill="#ff6584"
     id="path32" />
  <path
     d="M802.34139,639.10817a1.01841,1.01841,0,0,1-.00009,2.03607A1.01841,1.01841,0,0,1,802.34139,639.10817Z"
     transform="translate(-145.5 -185.33957)"
     fill="#ff6584"
     id="path33" />
  <path
     d="M510.18964,243.56742a1.01829,1.01829,0,0,1-1.01475-.947A35.99078,35.99078,0,0,0,473.378,209.271c-1.08561,0-2.226.05519-3.38984.16409a1.018,1.018,0,0,1-.97858-.50769,42.76517,42.76517,0,0,0-78.20491,9.30122,1.01362,1.01362,0,0,1-1.00145.73467l-.27075-.0082c-.14084-.00472-.28156-.0097-.42352-.0097a30.16127,30.16127,0,0,0-29.39139,23.8138,1.01836,1.01836,0,0,1-.99648.80827H290.49673a1.01836,1.01836,0,1,1,0-2.03671h67.40935a32.21611,32.21611,0,0,1,31.16768-24.62207,44.80149,44.80149,0,0,1,81.375-9.557c1.0017-.07807,1.98438-.11735,2.92927-.11735a38.03415,38.03415,0,0,1,37.82864,35.24346,1.01827,1.01827,0,0,1-.94464,1.08722C510.23775,243.56667,510.21363,243.56742,510.18964,243.56742Z"
     transform="translate(-145.5 -185.33957)"
     fill="#cbcbcb"
     id="path34" />
  <path
     d="M498.07315,256.62457H331.06258a1.01836,1.01836,0,0,1,0-2.03672H498.07315a1.01836,1.01836,0,1,1,0,2.03672Z"
     transform="translate(-145.5 -185.33957)"
     fill="#cbcbcb"
     id="path35" />
  <path
     d="M371.79686,271.39075H315.78722a1.01836,1.01836,0,1,1,0-2.03672h56.00964a1.01836,1.01836,0,1,1,0,2.03672Z"
     transform="translate(-145.5 -185.33957)"
     fill="#cbcbcb"
     id="path36" />
  <path
     d="M1045.18964,319.56742a1.01829,1.01829,0,0,1-1.01475-.947A35.99078,35.99078,0,0,0,1008.378,285.271c-1.08561,0-2.226.05519-3.38984.16409a1.018,1.018,0,0,1-.97858-.50769,42.76517,42.76517,0,0,0-78.20491,9.30122,1.01362,1.01362,0,0,1-1.00145.73467l-.27075-.0082c-.14084-.00472-.28156-.0097-.42352-.0097a30.16127,30.16127,0,0,0-29.39139,23.8138,1.01836,1.01836,0,0,1-.99648.80827H825.49673a1.01836,1.01836,0,1,1,0-2.03671h67.40935a32.21611,32.21611,0,0,1,31.16768-24.62207,44.80149,44.80149,0,0,1,81.375-9.557c1.0017-.07807,1.98438-.11735,2.92927-.11735a38.03415,38.03415,0,0,1,37.82864,35.24346,1.01827,1.01827,0,0,1-.94464,1.08722C1045.23775,319.56667,1045.21363,319.56742,1045.18964,319.56742Z"
     transform="translate(-145.5 -185.33957)"
     fill="#cbcbcb"
     id="path37" />
  <path
     d="M1033.07315,332.62457H866.06258a1.01836,1.01836,0,0,1,0-2.03672h167.01057a1.01836,1.01836,0,1,1,0,2.03672Z"
     transform="translate(-145.5 -185.33957)"
     fill="#cbcbcb"
     id="path38" />
  <path
     d="M906.79686,347.39075H850.78722a1.01836,1.01836,0,1,1,0-2.03672h56.00964a1.01836,1.01836,0,0,1,0,2.03672Z"
     transform="translate(-145.5 -185.33957)"
     fill="#cbcbcb"
     id="path39" />
  <path
     id="b1a8541e-143e-4538-83fe-9ad513a1421c-162"
     data-name="Path 438"
     d="M324.99847,696.69064c12.90671,3.70548,13.05957-14.53448,15.11318-22.74232-7.29521,4.96744-19.59555,12.04951-15.06565,22.5203"
     transform="translate(-145.5 -185.33957)"
     fill="#6c63ff" />
  <path
     id="b8cf628a-e9ed-4a73-b365-3d3d5b22b3b0-163"
     data-name="Path 439"
     d="M325.71039,710.84215c-1.6954-9.589-1.80238-21.734,7.60668-27.40146.44943-.2839.86351.42884.41564.71159-9.08411,5.49441-8.81431,17.22737-7.22681,26.47038a.41267.41267,0,0,1-.79524.21893Z"
     transform="translate(-145.5 -185.33957)"
     fill="#3f3d56" />
  <path
     id="a23791c3-92dd-4f50-a474-9928a61c2106-164"
     data-name="Path 442"
     d="M329.88736,704.0582c5.90622,7.92823,14.13105-2.68754,18.99453-6.57869-6.4875-.34491-16.85045-1.682-18.86675,6.47018"
     transform="translate(-145.5 -185.33957)"
     fill="#6c63ff" />
  <path
     id="b60c076d-9097-4801-ac73-7cc88add5974-165"
     data-name="Path 443"
     d="M324.07,713.27245c3.33852-6.39122,8.67016-13.61924,16.798-12.70657.52791.04539.396.85924-.131.81391-7.7204-.79891-12.7435,6.14441-15.91368,12.2286C324.56461,714.066,323.80846,713.73543,324.07,713.27245Z"
     transform="translate(-145.5 -185.33957)"
     fill="#3f3d56" />
  <path
     id="a67956e2-8b98-4e4d-9992-a085a750263d-166"
     data-name="Path 438"
     d="M980.76531,696.69064c-12.90671,3.70548-13.05957-14.53448-15.11318-22.74232,7.29521,4.96744,19.59555,12.04951,15.06565,22.5203"
     transform="translate(-145.5 -185.33957)"
     fill="#6c63ff" />
  <path
     id="f3f3b4ba-0cf2-43e5-a143-29a7044919d2-167"
     data-name="Path 439"
     d="M980.05339,710.84215c1.6954-9.589,1.80238-21.734-7.60669-27.40146-.44942-.2839-.8635.42884-.41563.71159,9.08411,5.49441,8.81431,17.22737,7.22681,26.47038a.41267.41267,0,0,0,.79524.21893Z"
     transform="translate(-145.5 -185.33957)"
     fill="#3f3d56" />
  <path
     id="bcecc833-60d4-4858-ab03-197f92115e3a-168"
     data-name="Path 442"
     d="M975.87641,704.0582c-5.90621,7.92823-14.131-2.68754-18.99452-6.57869,6.4875-.34491,16.85045-1.682,18.86675,6.47018"
     transform="translate(-145.5 -185.33957)"
     fill="#6c63ff" />
  <path
     id="a6f598c3-c8a7-42f2-b39d-9dc53dda9960-169"
     data-name="Path 443"
     d="M981.69374,713.27245c-3.33852-6.39122-8.67016-13.61924-16.798-12.70657-.52791.04539-.396.85924.131.81391,7.7204-.79891,12.7435,6.14441,15.91367,12.2286C981.19917,714.066,981.95532,713.73543,981.69374,713.27245Z"
     transform="translate(-145.5 -185.33957)"
     fill="#3f3d56" />
  <path
     id="fd275a8b-ba12-4d4d-adbf-79ebe2765098-170"
     data-name="Path 438"
     d="M1035.035,683.95445c-22.499,6.45939-22.76545-25.33651-26.34531-39.64442,12.717,8.65924,34.159,21.00471,26.26244,39.25739"
     transform="translate(-145.5 -185.33957)"
     fill="#6c63ff" />
  <path
     id="fd36d152-0ef2-4ddc-ad5e-c52cba6d2e61-171"
     data-name="Path 439"
     d="M1033.794,708.62337c2.95542-16.71558,3.14191-37.88678-13.26-47.76623-.78344-.4949-1.50526.74755-.72454,1.24043,15.83543,9.57786,15.36511,30.03078,12.59778,46.14318a.71936.71936,0,0,0,1.38626.38165Z"
     transform="translate(-145.5 -185.33957)"
     fill="#3f3d56" />
  <path
     id="b2b22ba2-fa03-45e4-b19b-719bd4738787-172"
     data-name="Path 442"
     d="M1026.51268,696.79758c-10.29572,13.8205-24.63324-4.68491-33.11126-11.468,11.309-.60126,29.37371-2.9321,32.88853,11.27882"
     transform="translate(-145.5 -185.33957)"
     fill="#6c63ff" />
  <path
     id="b34fb090-06bf-4a57-8290-23762b8330c7-173"
     data-name="Path 443"
     d="M1036.65345,712.85988c-5.81971-11.14118-15.11384-23.74107-29.28221-22.1501-.92025.07912-.69034,1.49782.22832,1.4188,13.4582-1.39266,22.21448,10.71094,27.74072,21.31691C1035.79131,714.24315,1037.10943,713.66694,1036.65345,712.85988Z"
     transform="translate(-145.5 -185.33957)"
     fill="#3f3d56" />
</svg>
