<?xml version="1.0" encoding="UTF-8" standalone="no"?>
<!-- Created with Inkscape (http://www.inkscape.org/) -->

<svg
   width="233.72911mm"
   height="233.72911mm"
   viewBox="0 0 233.72912 233.72911"
   version="1.1"
   id="svg1"
   inkscape:version="1.3.2 (1:1.3.2+202311252150+091e20ef0f)"
   sodipodi:docname="ledezma.svg"
   xmlns:inkscape="http://www.inkscape.org/namespaces/inkscape"
   xmlns:sodipodi="http://sodipodi.sourceforge.net/DTD/sodipodi-0.dtd"
   xmlns="http://www.w3.org/2000/svg"
   xmlns:svg="http://www.w3.org/2000/svg">
  <sodipodi:namedview
     id="namedview1"
     pagecolor="#ffffff"
     bordercolor="#000000"
     borderopacity="0.25"
     inkscape:showpageshadow="2"
     inkscape:pageopacity="0.0"
     inkscape:pagecheckerboard="0"
     inkscape:deskcolor="#d1d1d1"
     inkscape:document-units="mm"
     inkscape:zoom="0.32882252"
     inkscape:cx="326.92408"
     inkscape:cy="222.00426"
     inkscape:window-width="1294"
     inkscape:window-height="704"
     inkscape:window-x="72"
     inkscape:window-y="27"
     inkscape:window-maximized="1"
     inkscape:current-layer="layer1" />
  <defs
     id="defs1" />
  <g
     inkscape:label="Layer 1"
     inkscape:groupmode="layer"
     id="layer1"
     transform="translate(-16.407328,-38.000917)">
    <g
       id="g4"
       transform="matrix(0.55706138,0,0,0.55706138,-250.68427,76.063353)"
       inkscape:export-filename="g4.png"
       inkscape:export-xdpi="96"
       inkscape:export-ydpi="96">
      <path
         style="fill:#04f0d4;fill-opacity:0.960784;stroke-width:0.264583"
         d="m 707.11405,263.17299 c -8.73086,-1.22137 -18.895,-4.82637 -26.84185,-9.52024 -1.69681,-1.00222 -3.14796,-1.82221 -3.22478,-1.82221 -0.27468,0 -6.05185,-3.62638 -8.12896,-5.10262 -1.16417,-0.82741 -4.31017,-2.97527 -6.99114,-4.77306 -4.19674,-2.81424 -4.98149,-3.219 -5.64443,-2.91116 -0.42349,0.19667 -3.39334,2.32069 -6.59964,4.72011 -7.03257,5.26275 -7.8913,5.83272 -11.58774,7.69126 -6.04089,3.03731 -8.72966,3.83177 -13.97984,4.13065 -4.43193,0.25233 -10.13971,-0.2988 -13.19144,-1.27371 -1.114,-0.35586 -3.98939,-1.26959 -6.13995,-2.36704 -4.92066,-2.51107 -9.28566,-6.85297 -11.89776,-13.18736 -0.57751,-1.4005 -1.05003,-2.85136 -1.05003,-3.22419 0,-0.37282 -0.47678,-1.72508 -0.657,-4.12602 -0.18722,-2.49414 -0.345,-5.81473 0.14946,-8.14932 0.48341,-2.54958 2.4753,-6.36635 5.3349,-9.34176 2.8596,-2.9754 6.58691,-5.10945 9.99746,-6.44502 4.06,-1.58991 11.64316,-2.08625 14.98492,-1.31557 8.16912,1.88396 17.97042,6.6771 28.35566,13.86676 2.60514,1.80353 3.43006,2.21377 3.88057,1.92987 0.61539,-0.3878 1.46282,-2.31047 5.48965,-12.45516 7.4427,-18.7502 8.82216,-23.11548 12.54154,-39.68749 4.21509,-18.78083 4.40796,-20.28958 4.01127,-20.11084 -1.18213,0.53266 -2.46832,1.31385 -5.8292,2.79842 -5.01428,2.21492 -10.72224,2.8121 -14.56544,2.9275 -7.19789,0.21613 -12.40311,-1.40903 -17.87829,-4.13636 -4.66455,-2.32354 -8.47521,-6.18558 -11.98813,-10.03478 -10.33975,-11.32954 -19.91457,-31.50543 -20.11335,-49.231543 -0.25171,-22.44648 4.69714,-44.92986 24.06501,-62.89712 10.90763,-10.11884 21.69571,-15.88128 31.68868,-17.88415 11.79006,-2.3630397 25.28144,0.0441 28.55479,1.27029 -6.47247,-0.51094 -24.1578,-1.84984 -34.76754,2.19029 -12.30974,4.68747 -22.00607,12.84417 -30.48118,22.10026 -3.73615,4.08043 -6.161,9.23905 -8.52348,14.24179 -2.77205,5.87003 -5.72126,11.90163 -6.55118,18.34001 -2.09058,16.21822 -3.83107,29.25283 4.24741,48.873003 2.72225,6.61152 7.83168,14.77888 13.2505,21.05655 3.35696,3.88901 6.95667,8.06609 11.70559,10.02603 8.13637,3.358 18.34467,4.95612 26.33287,1.96735 5.16686,-1.93316 12.3275,-6.40629 12.66871,-7.91391 0.48219,-2.13056 1.65554,-8.01329 2.47093,-12.38836 0.50626,-2.71639 1.37384,-7.16139 1.92795,-9.87778 0.55411,-2.71639 1.1973,-6.05014 1.42932,-7.40833 0.9635,-5.64016 4.17997,-17.890693 6.91793,-26.348213 2.60181,-8.03698 16.50526,-34.7596 21.09316,-40.54136 5.46623,-6.88864 7.93368,-10.23736 13.29735,-14.27683 1.38263,-1.04128 2.86412,-1.95549 4.38735,-2.77749 1.51802,-0.8192 3.31559,-1.68503 4.71379,-2.13528 2.01939,-0.65029 5.85776,-1.09416 8.46434,-0.0142 4.69057,1.94338 8.80953,6.09878 10.75041,10.79039 3.10124,7.49652 1.40556,16.91115 0.0234,24.33802 -1.23431,6.63261 -1.51795,7.96886 -1.8982,8.94258 -0.21833,0.55908 -0.55994,1.74374 -0.75913,2.63258 -0.5168,2.30609 -3.917,10.78164 -5.93916,14.80434 -5.24959,10.44306 -12.69252,20.758023 -21.12577,29.277663 -8.28322,8.36807 -13.11843,12.28273 -20.97962,16.98544 -1.70092,1.01752 -3.23241,2.11256 -3.40332,2.43342 -0.1709,0.32086 -0.73294,3.59964 -1.24896,7.28617 -1.33185,9.51478 -3.05227,18.20742 -5.6373,28.48302 -3.85783,15.33511 -7.36058,23.73907 -19.74127,47.3642 -2.23694,4.2686 -4.07336,8.04619 -4.0809,8.39462 -0.0153,0.71109 3.33126,2.37553 10.21682,5.08127 19.79667,7.7792 35.37187,10.69321 51.5251,9.63993 3.35712,-0.21889 6.20662,-0.46151 6.33223,-0.53914 0.1256,-0.0776 1.88314,-0.39867 3.90566,-0.71342 6.88266,-1.07114 11.34888,-2.49071 17.53876,-5.57469 5.94331,-2.96112 9.97714,-5.77631 14.2518,-9.94627 5.5289,-5.39351 10.13628,-12.86357 13.02897,-21.12426 2.3751,-6.78262 3.72696,-16.89224 3.37754,-25.25831 -0.19587,-4.68969 -1.18139,-10.68835 -2.22551,-13.54625 -0.29072,-0.79576 -0.81547,-2.24128 -1.1661,-3.21228 -0.84917,-2.35161 -2.65584,-5.90124 -4.22298,-8.29708 -0.70105,-1.07175 -1.43339,-2.20149 -1.62742,-2.51052 -1.64433,-2.61893 -4.29549,-6.06985 -5.7537,-7.4894 -1.63676,-1.59337 -1.73911,-1.79173 -1.41062,-2.73403 0.19479,-0.5588 0.49332,-1.01601 0.66339,-1.01601 0.17006,0 1.41623,0.95279 2.76926,2.11731 4.48959,3.86407 10.26616,12.51022 12.38659,18.5398 1.11277,3.1642 2.42445,6.85337 2.98557,10.57051 0.3411,2.25954 0.88962,6.30445 0.88312,10.22378 -0.007,4.17168 -0.36518,7.15623 -0.52916,8.99583 -0.16411,1.84094 -0.85987,5.27717 -1.10077,6.7085 -0.27342,1.62456 -1.76914,6.30895 -3.18167,10.88664 -1.70765,5.53413 -5.75208,13.93026 -8.85398,18.38066 -3.88953,5.5804 -10.6935,13.12854 -16.7404,18.57128 -4.65797,4.19259 -16.35716,11.14915 -21.84197,12.98766 -3.73591,1.25227 -8.10352,2.42592 -11.17109,2.91888 -3.19993,0.51424 -6.81175,0.726 -11.40436,0.79465 -3.09015,0.0462 -6.71868,-0.11462 -9.92406,-0.63915 z m -83.70392,-11.86786 c 3.85829,-0.82069 9.39781,-3.67194 16.71383,-8.60288 1.76139,-1.18713 7.87972,-7.13057 9.54464,-9.27182 0.97596,-1.25518 0.92681,-1.59165 -0.41752,-2.85768 -1.85301,-1.74509 -8.67957,-7.37357 -11.68717,-9.63602 -9.72749,-7.3175 -18.60624,-11.41439 -24.73711,-11.41439 -2.44901,0 -5.46055,0.68083 -7.23197,1.63497 -5.67243,3.05535 -8.99354,6.61302 -11.08724,11.87709 -0.85418,2.1476 -0.96091,2.86491 -0.93395,6.27668 0.0373,4.72369 0.37592,6.31386 1.99618,9.37459 4.01835,7.59084 10.28965,11.88775 19.37364,13.27435 1.61841,0.24705 5.71675,-0.07 8.46667,-0.65489 z M 703.11746,130.7499 c 5.14342,-3.33237 7.8246,-5.46044 12.20296,-9.68557 4.13235,-3.98773 11.24841,-12.32013 15.01105,-17.57685 8.28784,-11.578833 16.13975,-26.432113 18.49123,-34.979413 0.41881,-1.5223 1.14606,-4.00732 1.61612,-5.52227 1.26527,-4.07784 2.04432,-11.18022 1.78743,-16.29554 -0.22292,-4.43879 -0.49113,-6.07975 -1.54262,-8.90166 -0.32428,-0.87029 -0.83779,-1.6774 -1.43671,-2.38723 -1.59286,-1.88785 -3.29081,-3.78348 -5.61544,-4.83501 -1.43578,-0.64947 -3.61793,-1.2128 -5.49059,-1.19127 -2.28899,0.0263 -4.57717,0.69622 -6.67601,1.61001 -2.35677,1.02608 -4.52092,2.45249 -6.43068,4.25569 -2.058,1.94317 -6.9239,8.88725 -8.85094,13.03697 -0.49556,1.06715 -1.05321,2.21498 -1.23922,2.55072 -0.75548,1.36364 -4.23791,11.06258 -5.74308,15.99514 -2.07963,6.8151 -5.05958,18.16171 -5.92301,22.55275 -2.96921,15.100213 -4.54977,28.361743 -4.54977,38.174543 0,4.95275 0.0135,5.04073 0.7733,5.04073 0.42532,0 2.05251,-0.82878 3.61598,-1.84174 z"
         id="path9"
         sodipodi:nodetypes="sssssssssssssscssssssssssasasscsaaasaassssssssasaassssssssssscsssssssssssssssssssssssssscsssssssssssssssssssaaaasssssssss" />
      <circle
         style="opacity:1;fill:none;stroke:#03f0d4;stroke-width:5.7;stroke-linejoin:round;stroke-miterlimit:3.3;stroke-dasharray:none;stroke-opacity:0.960784;paint-order:markers stroke fill"
         id="path1"
         cx="100.7687"
         cy="-696.36646"
         r="163.17799"
         transform="rotate(93.364261)" />
      <circle
         style="opacity:1;fill:none;fill-opacity:0.960784;stroke:#03f0d4;stroke-width:5.24;stroke-linejoin:round;stroke-miterlimit:3.3;stroke-dasharray:none;stroke-opacity:0.960784;paint-order:markers stroke fill"
         id="circle1"
         cx="689.25287"
         cy="141.46039"
         r="207.16757" />
      <path
         sodipodi:type="star"
         style="opacity:1;fill:#03f0d4;fill-opacity:0.960784;stroke:none;stroke-width:5.7;stroke-linejoin:round;stroke-miterlimit:3.3;stroke-dasharray:none;paint-order:markers stroke fill"
         id="path2"
         inkscape:flatsided="false"
         sodipodi:sides="5"
         sodipodi:cx="-1362.808"
         sodipodi:cy="24.246441"
         sodipodi:r1="57.573635"
         sodipodi:r2="28.786819"
         sodipodi:arg1="0.52359878"
         sodipodi:arg2="1.1519173"
         inkscape:rounded="0"
         inkscape:randomized="0"
         d="m -1312.9478,53.033259 -38.1515,-2.48875 -23.6789,30.017445 -9.4226,-37.053371 -35.8654,-13.244059 32.3281,-20.4114927 1.5128,-38.2027233 29.4024,24.4383745 36.8005,-10.3665225 -14.1565,35.515239 z"
         transform="matrix(0.24522945,0.09933204,-0.09933204,0.24522945,840.12987,262.55847)"
         inkscape:transform-center-x="0.16010336"
         inkscape:transform-center-y="-1.3015073" />
      <path
         d="m 550.9652,21.687848 4.75317,-3.154886 q 2.75821,3.825736 2.65536,7.488916 -0.10572,3.636537 -2.90978,7.119889 -3.46942,4.309909 -8.64039,4.720348 -5.18573,0.398557 -10.29268,-3.712469 -5.40214,-4.348659 -6.13804,-9.538371 -0.75065,-5.201594 2.90888,-9.747662 3.19614,-3.970431 7.53908,-4.560933 2.5756,-0.3591277 5.76743,0.994032 l -2.44811,5.15638 q -1.99155,-0.970742 -3.95188,-0.529849 -1.94845,0.426133 -3.35048,2.167809 -1.93669,2.405874 -1.4217,5.301535 0.52688,2.880901 4.39399,5.993875 4.10327,3.303079 7.0331,3.229109 2.92983,-0.07397 4.83089,-2.435564 1.40202,-1.741676 1.30496,-3.887391 -0.0971,-2.145715 -2.0338,-4.604768 z m 14.95505,-1.319747 -18.64156,-20.28595072 4.12974,-3.79498198 15.47481,16.8398507 10.26854,-9.4361707 3.16676,3.4461 z M 583.5235,4.9896293 566.86155,-17.236205 l 4.48762,-3.364213 16.66195,22.2258353 z m 8.73675,-6.748738 -14.06369,-23.9545603 4.70595,-2.762852 19.19583,10.240999 -9.39178,-15.996941 4.49352,-2.63814 14.06369,23.954561 -4.85301,2.849191 -18.82812,-9.951516 9.17113,15.6211183 z m 24.34696,-13.3869463 -11.2879,-25.380925 5.12466,-2.279141 11.28791,25.380926 z m 23.8372,-19.707694 5.7049,0.0056 q 0.17774,4.713 -1.93667,7.706108 -2.10206,2.969331 -6.36599,4.316697 -5.2757,1.667079 -9.80851,-0.855025 -4.53852,-2.540171 -6.5139,-8.791518 -2.08956,-6.612698 0.17194,-11.341363 2.25579,-4.746732 7.82058,-6.505158 4.86015,-1.535768 8.80324,0.37782 2.34341,1.127426 4.2516,4.021843 l -4.89413,2.937512 q -1.1206,-1.911254 -2.997,-2.629846 -1.85834,-0.724301 -3.9903,-0.05062 -2.945,0.930596 -4.11991,3.626826 -1.15684,2.690522 0.33896,7.424202 1.58715,5.022759 4.06758,6.583804 2.48043,1.561045 5.37123,0.647577 2.13196,-0.673683 3.23951,-2.514023 1.10755,-1.840341 0.85687,-4.960445 z m 37.80123,3.465826 -6.03654,0.886377 -3.31627,-5.890411 -10.98576,1.613096 -1.35173,6.57584 -5.88657,0.864355 6.66906,-29.054946 5.86782,-0.861602 z m -11.8137,-9.373041 -5.28439,-9.642332 -2.21443,10.743422 z m 24.3538,9.386379 1.65893,-27.500468 5.59844,0.337719 -1.37712,22.828793 13.92046,0.839735 -0.28181,4.671676 z m 23.50892,1.747966 5.6244,-27.202469 20.16991,4.17034 -0.95147,4.601782 -14.67746,-3.034719 -1.24688,6.030561 13.6569,2.823708 -0.94763,4.583227 -13.6569,-2.823708 -1.53079,7.403673 15.19702,3.142143 -0.94763,4.583226 z m 35.06889,-20.4047 9.59364,3.611487 q 3.24517,1.221631 4.76064,2.359015 2.0339,1.53501 3.01782,3.86928 0.98392,2.33427 0.89386,5.155074 -0.0834,2.803071 -1.45856,6.456103 -1.20828,3.209703 -2.88077,5.232346 -2.04342,2.47015 -4.51308,3.544824 -1.86612,0.815968 -4.46954,0.686261 -1.9448,-0.104479 -4.85303,-1.199273 l -9.87738,-3.718296 z m 3.59347,6.373796 -6.48198,17.218904 3.91903,1.475302 q 2.19891,0.827772 3.26769,0.946664 1.39695,0.161444 2.51746,-0.28733 1.13824,-0.442098 2.32444,-1.979681 1.19288,-1.555316 2.32773,-4.569954 1.13484,-3.014638 1.21033,-4.828623 0.0755,-1.813986 -0.54166,-3.078858 -0.61713,-1.264873 -1.96883,-2.138143 -1.00599,-0.66215 -4.2157,-1.870429 z m 12.69258,30.00055 13.71026,-24.15858 17.91294,10.165794 -2.31933,4.086853 -13.03509,-7.397555 -3.03945,5.355756 12.12873,6.883187 -2.30998,4.070374 -12.12873,-6.883186 -3.73151,6.57522 13.4965,7.6594153 -2.30998,4.070375 z m 20.37676,11.7258143 3.10113,-3.997217 22.57317,-5.2939343 -10.22509,-7.932864 2.88045,-3.712771 16.06373,12.46261 -2.67139,3.4432963 -23.50857,5.47954 12.48569,9.686689 -2.86884,3.6977997 z m 20.55052,16.0709767 20.3498,-18.9075017 5.71353,6.149361 -10.45049,16.5897337 17.27318,-9.2465907 5.72642,6.1632417 -20.34981,18.907502 -3.54677,-3.817324 16.01888,-14.883531 -19.772,10.844109 -3.67574,-3.956135 12.27864,-18.9090727 -16.01887,14.8835307 z m 35.16325,45.252127 -3.31226,-5.123907 3.98227,-5.462247 -6.0279,-9.324874 -6.54362,1.49997 -3.22997,-4.996605 29.20171,-5.993868 3.21968,4.980692 z m 3.62324,-14.638638 6.57866,-8.810248 -10.69327,2.445146 z"
         id="text3"
         style="font-weight:bold;font-size:38.8056px;line-height:0.95;font-family:Arial;-inkscape-font-specification:'Arial Bold';text-align:center;text-anchor:middle;fill:#03f0d4;fill-opacity:0.960784;stroke-width:4.76382;stroke-linejoin:round;stroke-miterlimit:3.3;paint-order:markers stroke fill"
         aria-label="CLINICA LEDEZMA" />
      <path
         d="m 518.68467,241.13371 23.78664,-14.34587 2.89657,4.80276 -23.78664,14.34587 z m 9.79667,15.14168 16.46124,-24.4789 3.61037,4.89488 -12.37226,17.86061 20.58277,-6.72895 3.53164,4.78814 -28.25962,8.48285 z m 11.52754,14.62421 20.73058,-18.48922 3.73315,4.18571 -20.73057,18.48922 z m 7.21076,8.30006 18.81746,-20.43309 8.68337,7.99677 q 3.27542,3.01645 4.23941,4.93457 0.99077,1.91703 0.58637,4.14626 -0.4044,2.22924 -2.07307,4.04118 -2.11792,2.29977 -4.85619,2.55999 -2.72543,0.24628 -5.77486,-1.84079 0.61923,2.01277 0.62338,3.74245 0.0181,1.7425 -0.69943,5.48651 l -1.17617,6.28389 -4.93405,-4.54391 1.11193,-7.19311 q 0.60601,-3.84669 0.58539,-4.99907 -0.008,-1.16632 -0.45749,-1.99261 -0.43687,-0.84024 -1.85855,-2.1495 l -0.83627,-0.77016 -7.85559,8.53005 z m 14.98483,-7.99211 3.05242,2.81107 q 2.96879,2.73405 3.93855,3.16347 0.96976,0.42942 1.95268,0.20123 0.98292,-0.2282 1.83009,-1.1481 0.94986,-1.03142 0.96996,-2.17206 0.0469,-1.14175 -0.80263,-2.23319 -0.43759,-0.53179 -2.94643,-2.84225 l -3.21968,-2.9651 z m 22.29456,25.55019 2.63072,-3.87083 9.99832,6.79513 -6.21999,9.15208 q -2.416,0.41991 -5.92472,-0.38394 -3.48241,-0.80886 -6.31893,-2.73664 -3.60441,-2.44965 -5.26175,-5.77537 -1.64669,-3.34139 -1.08795,-7.06252 0.56938,-3.7368 2.81668,-7.04346 2.439,-3.58874 5.83927,-5.35578 3.40027,-1.76703 7.31129,-1.28544 2.98716,0.35774 6.27815,2.59438 4.27828,2.90763 5.45117,6.33939 1.19921,3.42674 -0.26269,7.06099 l -5.19316,-2.26938 q 0.66446,-2.02267 -0.0229,-3.91026 -0.66108,-1.8926 -2.66701,-3.25589 -3.04025,-2.06623 -6.15248,-1.36348 -3.09657,0.7134 -5.67404,4.50587 -2.77982,4.09023 -2.35718,7.37865 0.43329,3.27276 3.3795,5.27509 1.45744,0.99051 3.2983,1.41685 1.86718,0.42133 3.471,0.32001 l 1.98103,-2.91487 z m 31.38942,28.6335 -5.49498,-2.65156 0.55779,-6.73672 -10.00017,-4.8255 -4.80702,4.6863 -5.35846,-2.58567 21.81618,-20.31553 5.34139,2.57744 z m -4.52442,-14.38567 1.03248,-10.94683 -7.85854,7.65298 z m 7.41374,15.32993 8.41334,-26.47308 11.25016,3.57538 q 4.24364,1.34866 5.92823,2.67932 1.70839,1.31833 2.28447,3.50949 0.57607,2.19115 -0.17,4.5387 -0.94693,2.97957 -3.31837,4.37316 -2.3657,1.37553 -6.01159,0.77353 1.41219,1.56219 2.14728,3.1279 0.75314,1.57144 1.68593,5.2677 l 1.59104,6.19187 -6.39255,-2.0316 -2.03368,-6.98865 q -1.07725,-3.74217 -1.58317,-4.77776 -0.50019,-1.05365 -1.25709,-1.61231 -0.75117,-0.57672 -2.59309,-1.16209 l -1.08348,-0.34434 -3.51225,11.05151 z m 10.20035,-13.57836 3.95471,1.25684 q 3.84636,1.2224 4.90674,1.20152 1.06038,-0.0209 1.85464,-0.64326 0.79425,-0.62239 1.17302,-1.81422 0.42469,-1.33629 -0.0394,-2.37846 -0.44027,-1.05449 -1.67158,-1.6844 -0.62139,-0.29689 -3.87184,-1.32991 l -4.17141,-1.3257 z m 14.27932,21.15056 0.88969,-4.98029 17.53151,-15.17299 -12.73982,-2.27587 0.82638,-4.62588 20.0144,3.57542 -0.7664,4.29013 -18.27368,15.77184 15.55639,2.77903 -0.82305,4.60723 z m 50.78892,5.51714 -6.09486,-0.2796 -2.13365,-6.41422 -11.09189,-0.50884 -2.57946,6.19801 -5.94343,-0.27266 12.08093,-27.25284 5.92451,0.27179 z m -9.81221,-11.45156 -3.35111,-10.47231 -4.22014,10.12498 z m 12.75935,11.32754 -2.96418,-27.61923 8.34605,-0.89572 7.03336,18.30201 2.93293,-19.37163 8.36489,-0.89774 2.96419,27.61923 -5.18096,0.55603 -2.33334,-21.74119 -3.14906,22.32958 -5.36936,0.57626 -7.79689,-21.15483 2.33333,21.74119 z m 56.3815,-10.46018 -5.89957,1.55582 -3.95414,-5.48264 -10.73648,2.8314 -0.60795,6.68574 -5.753,1.51717 3.37834,-29.61846 5.73467,-1.51233 z m -12.7877,-7.99325 -6.32944,-8.99097 -0.99922,10.92366 z m 20.63111,-3.35291 -2.1253,-4.88184 9.58995,-4.17496 2.1253,4.88184 z m 34.48268,-21.75402 5.51055,-1.47643 q 1.39584,4.50507 0.13146,7.94466 -1.25863,3.41342 -5.02622,5.82209 -4.6616,2.98022 -9.69394,1.72208 -5.04255,-1.27411 -8.57391,-6.79778 -3.73548,-5.84297 -2.77987,-10.99675 0.94541,-5.16974 5.86244,-8.31326 4.29441,-2.74548 8.59922,-1.92179 2.55582,0.48003 5.15034,2.77945 l -3.96313,4.10793 q -1.57858,-1.55458 -3.57724,-1.76111 -1.98269,-0.21674 -3.86649,0.9876 -2.60219,1.66361 -3.03643,4.57248 -0.41827,2.89866 2.25576,7.08133 2.83733,4.4381 5.6381,5.30127 2.80078,0.86317 5.35508,-0.76982 1.88379,-1.20434 2.4753,-3.26919 0.5915,-2.06486 -0.46102,-5.01276 z m -4.17004,-18.33136 8.41549,-7.24352 q 2.49879,-2.1508 3.90488,-2.98607 1.4081,-0.86198 2.93888,-1.02957 1.54514,-0.17994 3.14318,0.36961 1.58567,0.53519 2.75996,1.89947 1.27318,1.47918 1.53201,3.40643 0.27319,1.91489 -0.55958,3.70669 2.40644,-1.09629 4.60235,-0.63635 2.19592,0.45994 3.76576,2.28377 1.23609,1.43609 1.73542,3.38134 0.50132,1.91853 0.0427,3.73834 -0.45666,1.79309 -1.99055,3.43837 -0.96382,1.0296 -5.00323,4.55646 l -7.1661,6.16811 z m 7.26689,-0.15478 4.19036,4.86834 2.78602,-2.39802 q 2.48443,-2.13844 3.02579,-2.7294 0.98018,-1.06868 1.06618,-2.21772 0.088,-1.17576 -0.78963,-2.19539 -0.84055,-0.97654 -1.90542,-1.10998 -1.06287,-0.16017 -2.23683,0.62529 -0.69368,0.47208 -3.69511,3.05552 z m 7.20643,8.37241 4.84549,5.62947 3.93489,-3.3869 q 2.29774,-1.97775 2.80401,-2.63852 0.79949,-0.98815 0.81969,-2.15555 0.0222,-1.19412 -0.94196,-2.31427 -0.81583,-0.94782 -1.84398,-1.21287 -1.02815,-0.26506 -2.16375,0.18738 -1.12123,0.44008 -4.02213,2.93699 z m 3.7213,-24.04482 7.30677,-8.36063 q 2.16958,-2.48251 3.44344,-3.50819 1.27207,-1.05243 2.76378,-1.43477 1.50418,-0.3966 3.16386,-0.0785 1.64541,0.30561 3.00081,1.49015 1.46953,1.2843 1.99826,3.15559 0.54119,1.85702 -0.0299,3.74858 2.22726,-1.42553 4.46614,-1.2807 2.23889,0.14483 4.05083,1.72838 1.42673,1.24689 2.19609,3.10199 0.76755,1.82837 0.57081,3.69475 -0.19854,1.83964 -1.4844,3.68527 -0.80856,1.15553 -4.30871,5.21811 l -6.22198,7.11938 z m 7.17201,-1.18071 4.83661,4.22695 2.41896,-2.76785 q 2.15712,-2.46824 2.60947,-3.12981 0.81923,-1.19654 0.7419,-2.34619 -0.0791,-1.17639 -1.09211,-2.06168 -0.97017,-0.84789 -2.04321,-0.82942 -1.07485,-0.008 -2.12595,0.93528 -0.61997,0.56542 -3.22596,3.54728 z m 8.31783,7.26936 5.59277,4.8878 3.41648,-3.90924 q 1.99502,-2.28276 2.40277,-3.00848 0.65174,-1.09126 0.50667,-2.24979 -0.14687,-1.18526 -1.25972,-2.15784 -0.94164,-0.82294 -1.99694,-0.93996 -1.0553,-0.11701 -2.11551,0.49144 -1.04775,0.59419 -3.56646,3.47619 z m 37.21554,-30.17775 -3.32508,5.1156 -6.61213,-1.40514 -6.05122,9.30976 4.04087,5.36099 -3.24246,4.98851 -17.39396,-24.20984 3.23214,-4.97262 z m -14.84229,2.66912 -10.72842,-2.40835 6.5979,8.76314 z m 15.84863,-5.49569 -4.72727,-2.44992 2.44992,-4.72727 4.72727,2.44992 z"
         id="text4"
         style="font-weight:bold;font-size:38.8056px;line-height:0.95;font-family:Arial;-inkscape-font-specification:'Arial Bold';text-align:center;text-anchor:middle;fill:#03f0d4;fill-opacity:0.960784;stroke-width:4.76382;stroke-linejoin:round;stroke-miterlimit:3.3;paint-order:markers stroke fill"
         aria-label="IVIRGARZAMA - CBBA." />
      <path
         sodipodi:type="star"
         style="opacity:1;fill:#03f0d4;fill-opacity:0.960784;stroke:none;stroke-width:5.7;stroke-linejoin:round;stroke-miterlimit:3.3;stroke-dasharray:none;paint-order:markers stroke fill"
         id="path4"
         inkscape:flatsided="false"
         sodipodi:sides="5"
         sodipodi:cx="-1362.808"
         sodipodi:cy="24.246441"
         sodipodi:r1="57.573635"
         sodipodi:r2="28.786819"
         sodipodi:arg1="0.52359878"
         sodipodi:arg2="1.1519173"
         inkscape:rounded="0"
         inkscape:randomized="0"
         d="m -1312.9478,53.033259 -38.1515,-2.48875 -23.6789,30.017445 -9.4226,-37.053371 -35.8654,-13.244059 32.3281,-20.4114927 1.5128,-38.2027233 29.4024,24.4383745 36.8005,-10.3665225 -14.1565,35.515239 z"
         transform="matrix(0.24522945,0.09933204,-0.09933204,0.24522945,1212.1071,263.2819)"
         inkscape:transform-center-x="0.16010336"
         inkscape:transform-center-y="-1.3015073" />
    </g>
  </g>
</svg>
