<?xml version="1.0" encoding="UTF-8" standalone="no"?>
<!-- Created with Inkscape (http://www.inkscape.org/) -->

<svg
   width="96.0793mm"
   height="92.700104mm"
   viewBox="0 0 96.0793 92.700104"
   version="1.1"
   id="svg1"
   sodipodi:docname="path25.svg"
   xmlns:inkscape="http://www.inkscape.org/namespaces/inkscape"
   xmlns:sodipodi="http://sodipodi.sourceforge.net/DTD/sodipodi-0.dtd"
   xmlns="http://www.w3.org/2000/svg"
   xmlns:svg="http://www.w3.org/2000/svg">
  <sodipodi:namedview
     id="namedview1"
     pagecolor="#ffffff"
     bordercolor="#000000"
     borderopacity="0.25"
     inkscape:showpageshadow="2"
     inkscape:pageopacity="0.0"
     inkscape:pagecheckerboard="0"
     inkscape:deskcolor="#d1d1d1"
     inkscape:document-units="mm"
     inkscape:zoom="0.4489899"
     inkscape:cx="396.44544"
     inkscape:cy="561.25984"
     inkscape:window-width="1294"
     inkscape:window-height="704"
     inkscape:window-x="72"
     inkscape:window-y="27"
     inkscape:window-maximized="1"
     inkscape:current-layer="layer1" />
  <defs
     id="defs1" />
  <g
     inkscape:label="Layer 1"
     inkscape:groupmode="layer"
     id="layer1"
     transform="translate(-48.070631,-97.968929)">
    <g
       id="g5">
      <path
         style="fill:#0000ff;stroke:none;stroke-width:3.45985"
         d="m 87.47903,190.0892 c -1.938397,-0.41061 -5.158266,-1.36459 -7.155264,-2.11996 -5.360052,-2.02748 -12.739865,-6.90397 -12.075316,-7.97923 0.14054,-0.22739 3.095399,-1.30787 6.566354,-2.40104 12.47817,-3.92999 21.105438,-8.76076 27.386096,-15.33463 4.46945,-4.67813 5.78739,-7.60379 5.09292,-11.30564 -0.65617,-3.4977 -5.35707,-7.54147 -13.67518,-11.76355 -9.791587,-4.96999 -11.201741,-7.04418 -7.542608,-11.09441 1.798012,-1.99018 8.331773,-4.89428 9.208774,-5.08055 0.564177,-0.11982 -1.266905,1.60086 -1.884138,2.81074 -1.539024,3.01673 -0.823945,3.4448 1.733876,6.2197 1.642395,1.78179 4.201522,3.42161 9.670666,6.19668 12.96553,6.57882 17.39446,10.98061 17.82321,17.71393 0.19802,3.10996 0.0236,3.90958 -1.55054,7.10706 -1.16158,2.3595 -3.28887,5.19104 -6.16431,8.20499 -3.47656,3.64404 -4.00037,4.38543 -2.51604,3.56117 3.60152,-1.99996 8.96299,-7.91578 11.05345,-12.1963 4.74646,-9.71916 4.88055,-18.59705 0.42175,-27.92373 -3.74455,-7.83263 -10.83103,-13.98619 -19.04299,-16.53601 -5.000444,-1.55262 -13.795849,-1.52187 -18.53138,0.0648 -11.843295,3.96819 -19.941083,13.64456 -21.648243,25.86834 -0.607138,4.34731 0.851172,11.19323 1.242767,12.98523 0.696754,3.18845 3.228588,1.64934 6.285806,0.96691 8.748079,-2.06249 10.393269,-4.90699 5.542373,-9.58263 -1.490084,-1.43626 -2.549815,-2.61551 -3.605938,-3.8447 -0.776002,-0.90318 -2.358352,-5.3104 -1.735315,-8.08334 1.278723,-5.69118 9.157165,-10.00268 15.755612,-12.12377 2.86128,-0.91977 0.606912,0.57194 -2.810848,2.6815 -3.808784,2.35092 -5.436472,4.24643 -5.436472,6.33101 0,2.31924 1.871669,3.9273 8.485145,7.29012 8.774039,4.46141 12.136023,8.10416 12.106903,13.11798 -0.0259,4.46596 -4.633685,10.58245 -11.321428,15.02845 -4.52747,3.00985 -7.111319,4.1573 -16.021398,7.11489 -5.150991,1.70981 -7.280432,2.19246 -7.99228,1.81149 -1.388948,-0.74334 -4.911842,-5.56085 -7.47078,-10.21618 -3.066523,-5.57876 -4.356405,-11.32214 -4.346398,-19.35298 0.01014,-8.09816 2.652447,-15.06866 4.415485,-19.16099 1.944793,-4.51423 7.186417,-10.00138 7.994413,-10.91041 0.85205,-0.95861 5.853145,-5.53035 10.910417,-7.96544 3.123925,-1.50419 7.281411,-3.12134 9.238864,-3.59368 5.18414,-1.25095 14.940975,-1.14453 20.280965,0.22121 21.67805,5.54431 35.36073,26.70103 31.51638,48.73189 -2.79795,16.0342 -14.6842,29.28604 -30.2311,33.70426 -5.15536,1.46508 -15.051102,1.87966 -19.97426,0.83682 z"
         id="path25"
         sodipodi:nodetypes="ssssssssssssssssssssssssssssssssssssssssssss" />
      <path
         style="font-weight:bold;font-size:8.46667px;line-height:0.95;font-family:Arial;-inkscape-font-specification:'Arial Bold';text-align:center;text-anchor:middle;fill:#ff6600;fill-opacity:0.960784;stroke:#fa6205;stroke-width:0.93;stroke-linejoin:round;stroke-miterlimit:3.3;paint-order:markers stroke fill"
         d="m 54.838584,133.14958 -4.702479,-1.80041 -0.643004,1.67946 -0.957483,-0.36659 1.722067,-4.49785 0.957483,0.36658 -0.641525,1.6756 4.702479,1.80041 z m 1.411463,-3.54647 -5.333418,-2.87849 1.22326,-2.26652 q 0.461422,-0.85495 0.815076,-1.16205 0.351979,-0.31269 0.845089,-0.34722 0.493109,-0.0345 0.966059,0.22073 0.600282,0.32398 0.802735,0.88893 0.198815,0.56299 -0.07827,1.32012 0.392228,-0.2393 0.757716,-0.33331 0.367451,-0.0976 1.197693,-0.14752 l 1.391955,-0.0897 -0.695078,1.28788 -1.580735,0.1522 q -0.845949,0.079 -1.088492,0.14538 -0.24618,0.0644 -0.396674,0.20402 -0.154131,0.13761 -0.354408,0.50869 l -0.11781,0.21829 2.226502,1.20166 z m -2.496616,-2.73799 0.430007,-0.79674 q 0.418225,-0.77491 0.456805,-1.00307 0.03858,-0.22816 -0.06259,-0.4237 -0.101171,-0.19554 -0.341284,-0.32513 -0.269217,-0.14529 -0.511471,-0.0881 -0.243927,0.0516 -0.428956,0.28994 -0.08888,0.12116 -0.442306,0.77601 l -0.453568,0.8404 z m 8.718797,-7.00185 -0.789589,1.07173 -1.422215,-0.39053 -1.436955,1.95041 0.811633,1.21929 -0.769972,1.04511 -3.479192,-5.49533 0.76752,-1.04177 z m -3.266861,0.39171 -2.305955,-0.66163 1.325099,1.99297 z m 3.732946,-0.87521 -4.329755,-4.24079 0.833115,-0.85059 4.627082,1.05994 -2.891425,-2.83201 0.795509,-0.8122 4.329754,4.24079 -0.859149,0.87717 -4.533118,-1.01999 2.823496,2.76548 z m 2.886878,-5.65809 0.868731,-0.82237 q 0.452882,0.40717 0.883272,0.42855 0.433654,0.0189 0.874185,-0.32381 0.466637,-0.36296 0.549296,-0.74151 0.08338,-0.38434 -0.122212,-0.64866 -0.131986,-0.16969 -0.32452,-0.20848 -0.19181,-0.0446 -0.508344,0.0602 -0.215374,0.0733 -0.935823,0.39271 -0.926394,0.41156 -1.457946,0.37459 -0.747654,-0.0522 -1.189301,-0.61998 -0.284279,-0.36548 -0.324903,-0.84192 -0.0399,-0.48224 0.218973,-0.95071 0.262136,-0.471 0.813616,-0.89996 0.900643,-0.70054 1.661349,-0.65851 0.76397,0.0395 1.299529,0.6809 l -0.93291,0.79373 q -0.348817,-0.32051 -0.67877,-0.3205 -0.329229,-0.006 -0.737128,0.31148 -0.420953,0.32743 -0.524641,0.68567 -0.06707,0.23024 0.07761,0.41624 0.131986,0.16969 0.36948,0.17875 0.302035,0.0112 1.136333,-0.3706 0.834299,-0.38183 1.310009,-0.46379 0.476436,-0.0878 0.90683,0.075 0.43112,0.15699 0.78393,0.61057 0.319813,0.41116 0.370591,0.94779 0.05078,0.53662 -0.229848,1.03773 -0.283165,0.49784 -0.906435,0.98263 -0.907169,0.70562 -1.718275,0.66612 -0.813644,-0.0428 -1.532674,-0.7719 z m 10.374035,-4.53752 -1.025767,0.54527 -2.054944,-3.86579 q -0.282739,0.82449 -0.911784,1.48192 l -0.494817,-0.93085 q 0.331689,-0.34487 0.608547,-0.96023 0.274918,-0.61901 0.190117,-1.20131 l 0.832295,-0.44242 z m 3.668745,-1.62835 -0.453183,-1.13223 -2.302856,0.92173 -0.377909,-0.94418 1.010811,-4.55029 0.90579,-0.36255 1.42868,3.56943 0.698533,-0.27959 0.379445,0.948 -0.698533,0.2796 0.453184,1.13223 z m -0.832628,-2.08024 -0.769644,-1.92289 -0.523794,2.44059 z m 4.379775,-5.488858 2.190683,-0.450662 q 0.741026,-0.152442 1.153085,-0.11903 0.554017,0.04642 1.007357,0.362562 0.45334,0.316148 0.765163,0.847118 0.31099,0.52692 0.482591,1.36108 0.150776,0.73293 0.07768,1.30087 -0.08943,0.69371 -0.419992,1.17956 -0.249322,0.36784 -0.744796,0.64704 -0.37101,0.20716 -1.035099,0.34378 l -2.255472,0.46399 z m 1.405187,0.757658 0.808859,3.93189 0.8949,-0.18409 q 0.502115,-0.1033 0.713166,-0.20581 0.276557,-0.13286 0.431055,-0.34613 0.158548,-0.21411 0.198392,-0.63593 0.03901,-0.42588 -0.102602,-1.11426 -0.141612,-0.68838 -0.338896,-1.03188 -0.197284,-0.3435 -0.458432,-0.50503 -0.261147,-0.16154 -0.612235,-0.16528 -0.26272,-0.005 -0.995647,0.14573 z m 5.831587,4.04225 -0.412904,-6.046536 4.483343,-0.306158 0.06985,1.022879 -3.262488,0.222788 0.09154,1.340467 3.03564,-0.2073 0.06957,1.01876 -3.03564,0.20729 0.11238,1.64568 3.377974,-0.23067 0.06957,1.01875 z m 7.914289,-2.21117 1.196043,0.0217 q 0.03796,0.60782 0.330126,0.92457 0.29627,0.31723 0.85069,0.3813 0.58727,0.0679 0.91143,-0.14438 0.32875,-0.21587 0.36719,-0.54851 0.0247,-0.21356 -0.0855,-0.37611 -0.10564,-0.16619 -0.40495,-0.31314 -0.20501,-0.0986 -0.94293,-0.37531 -0.949417,-0.35525 -1.302855,-0.75399 -0.496992,-0.56099 -0.414416,-1.27557 0.05315,-0.459964 0.357914,-0.828424 0.309343,-0.372092 0.822257,-0.525064 0.51701,-0.152497 1.21106,-0.07229 1.13347,0.130983 1.64689,0.693871 0.51753,0.563361 0.45041,1.396247 l -1.22177,-0.0871 q -0.0244,-0.47309 -0.25988,-0.704214 -0.23089,-0.234763 -0.74424,-0.294085 -0.52978,-0.06122 -0.85472,0.121796 -0.20916,0.117325 -0.23621,0.351413 -0.0247,0.21355 0.13846,0.38638 0.20768,0.2196 1.07054,0.53155 0.86286,0.31195 1.25976,0.58671 0.40148,0.27112 0.59459,0.68879 0.19769,0.41404 0.13172,0.98488 -0.0598,0.51746 -0.39947,0.93598 -0.33968,0.41853 -0.89098,0.57955 -0.55082,0.15692 -1.33522,0.0663 -1.141682,-0.13193 -1.692847,-0.72831 -0.550691,-0.60049 -0.553042,-1.62452 z m 5.685069,2.72255 1.46648,-5.880519 4.36024,1.087359 -0.24808,0.99479 -3.17291,-0.79126 -0.32511,1.30366 2.9523,0.73625 -0.24709,0.99078 -2.95229,-0.73624 -0.39913,1.60049 3.28523,0.81927 -0.24708,0.99078 z m 5.46272,1.4447 2.21273,-5.64224 1.82815,0.71695 q 1.03915,0.40753 1.32154,0.61597 0.43513,0.31719 0.59474,0.8727 0.16111,0.55165 -0.10303,1.22518 -0.20377,0.51958 -0.53122,0.7997 -0.32745,0.28013 -0.69995,0.3694 -0.36714,0.0869 -0.693,0.0346 -0.43966,-0.0792 -1.21325,-0.38255 l -0.74281,-0.29131 -0.83468,2.12835 z m 2.97763,-4.24098 -0.6279,1.60107 0.6235,0.24452 q 0.67353,0.26414 0.93532,0.26467 0.26179,5.3e-4 0.46275,-0.13824 0.20482,-0.13727 0.30293,-0.38744 0.12075,-0.3079 0.0183,-0.57897 -0.1024,-0.27108 -0.35989,-0.42979 -0.18888,-0.11848 -0.80468,-0.35998 z m 3.44643,7.03944 2.40365,-4.42462 -1.58022,-0.85845 0.48941,-0.90091 4.23208,2.29906 -0.48941,0.90091 -1.57659,-0.85647 -2.40365,4.42462 z m 3.25811,1.89579 3.34065,-5.05678 1.02101,0.67451 -3.34065,5.05678 z m 2.00724,1.30341 3.78926,-4.72996 3.50714,2.80963 -0.64102,0.80016 -2.55212,-2.04455 -0.84004,1.0486 2.37466,1.90238 -0.63844,0.79693 -2.37466,-1.90238 -1.03132,1.28735 2.64246,2.11692 -0.63844,0.79693 z m 4.37812,3.55451 4.43477,-4.13085 1.24827,1.34012 -2.27555,3.62243 3.76615,-2.02217 1.25109,1.34314 -4.43477,4.13084 -0.77489,-0.83189 3.49095,-3.25171 -4.31092,2.37141 -0.80306,-0.86215 2.67379,-4.12898 -3.49094,3.25171 z m 9.73344,1.84834 1.36618,2.00063 q 0.40565,0.59405 0.55261,0.91921 0.1527,0.32625 0.15185,0.66223 0.001,0.3394 -0.15648,0.67255 -0.15456,0.33081 -0.47889,0.55229 -0.35165,0.24013 -0.77581,0.24944 -0.42184,0.0127 -0.79012,-0.21136 0.17925,0.5484 0.0262,1.01336 -0.15306,0.46496 -0.58664,0.76104 -0.34141,0.23314 -0.77532,0.29416 -0.42816,0.0621 -0.8116,-0.0815 -0.37769,-0.14257 -0.69718,-0.51512 -0.19983,-0.23399 -0.86643,-1.1955 l -1.16335,-1.70361 z m -0.14294,1.57941 -1.15736,0.79033 0.45228,0.66233 q 0.40332,0.59063 0.51831,0.72236 0.20791,0.23848 0.45496,0.28504 0.2528,0.0476 0.4952,-0.11789 0.23215,-0.15853 0.28695,-0.38618 0.0605,-0.22657 -0.0812,-0.50019 -0.0855,-0.16187 -0.57276,-0.87541 z m -1.99039,1.35918 -1.33831,0.91389 0.63879,0.93545 q 0.37302,0.54625 0.504,0.67207 0.19483,0.19735 0.44747,0.23008 0.25837,0.0338 0.52467,-0.14802 0.22532,-0.15387 0.30777,-0.37037 0.0824,-0.21649 0.0119,-0.4737 -0.0682,-0.2538 -0.53912,-0.94344 z m 0.50658,5.58102 5.43307,-2.68567 1.14131,2.30887 q 0.43051,0.87092 0.47646,1.33704 0.0515,0.468 -0.20558,0.89021 -0.25707,0.42222 -0.73885,0.66038 -0.6115,0.30227 -1.18945,0.14064 -0.57425,-0.16347 -1.03159,-0.82744 -0.0317,0.45837 -0.1664,0.81089 -0.13289,0.35622 -0.57243,1.06233 l -0.73201,1.18732 -0.64852,-1.31194 0.79019,-1.37749 q 0.42489,-0.73576 0.51102,-0.97202 0.0898,-0.23809 0.063,-0.44159 -0.0231,-0.20533 -0.20996,-0.58334 l -0.10992,-0.22237 -2.2681,1.12117 z m 3.67758,-0.45286 0.4012,0.81163 q 0.39021,0.78939 0.55401,0.95283 0.1638,0.16345 0.38183,0.19402 0.21802,0.0306 0.46262,-0.0903 0.27425,-0.13557 0.36774,-0.36625 0.099,-0.2288 0.0116,-0.51762 -0.0474,-0.14258 -0.37718,-0.80967 l -0.42318,-0.8561 z m -1.05766,5.97633 5.74451,-1.93174 1.43233,4.25941 -0.97179,0.32678 -1.04229,-3.09953 -1.27351,0.42825 0.96982,2.88402 -0.96787,0.32547 -0.96982,-2.88402 -1.56348,0.52576 1.07919,3.20925 -0.96787,0.32547 z"
         id="text1"
         aria-label="TRANS 14 DE SEPTIEMBRE" />
      <text
         xml:space="preserve"
         style="font-weight:bold;font-size:8.46667px;line-height:0.95;font-family:Arial;-inkscape-font-specification:'Arial Bold';text-align:center;text-anchor:middle;fill:#000000;fill-opacity:0.960784;stroke:none;stroke-width:0.93;stroke-linejoin:round;stroke-miterlimit:3.3;stroke-dasharray:none;stroke-opacity:1;paint-order:markers stroke fill"
         x="96.2416"
         y="149.59712"
         id="text2"><tspan
           sodipodi:role="line"
           id="tspan2"
           style="stroke:#000000;stroke-width:0.93;stroke-dasharray:none;stroke-opacity:1"
           x="96.2416"
           y="149.59712" /></text>
      <text
         xml:space="preserve"
         style="font-weight:bold;font-size:5.64444px;line-height:0.95;font-family:Arial;-inkscape-font-specification:'Arial Bold';text-align:center;text-anchor:middle;fill:#000000;fill-opacity:0.960784;stroke:none;stroke-width:0.93;stroke-linejoin:round;stroke-miterlimit:3.3;stroke-dasharray:none;stroke-opacity:1;paint-order:markers stroke fill"
         x="97.877556"
         y="158.06209"
         id="text3"><tspan
           id="tspan3"
           style="font-size:5.64444px;fill:#ff0000;stroke:none;stroke-width:0.93"
           x="97.877556"
           y="158.06209"
           sodipodi:role="line">R.P. N° 076/03</tspan></text>
      <text
         xml:space="preserve"
         style="font-weight:bold;font-size:8.46667px;line-height:0.95;font-family:Arial;-inkscape-font-specification:'Arial Bold';text-align:center;text-anchor:middle;fill:#ff6600;fill-opacity:0.960784;stroke:#fa6205;stroke-width:0.93;stroke-linejoin:round;stroke-miterlimit:3.3;stroke-dasharray:none;stroke-opacity:1;paint-order:markers stroke fill"
         x="99.095909"
         y="149.28598"
         id="text4"><tspan
           sodipodi:role="line"
           id="tspan4"
           style="font-size:8.46667px;stroke:#fa6205;stroke-width:0.93;stroke-opacity:1"
           x="99.095909"
           y="149.28598">IVIRGARZAMA</tspan></text>
    </g>
  </g>
</svg>
