<?xml version="1.0" encoding="UTF-8" standalone="no"?>
<svg
   data-name="Layer 1"
   width="804"
   height="697.68253"
   viewBox="0 0 804 697.68253"
   version="1.1"
   id="svg31"
   sodipodi:docname="undraw_mobile_marketing_re_p77p.svg"
   inkscape:version="1.3 (1:1.3+202307231459+0e150ed6c4)"
   xmlns:inkscape="http://www.inkscape.org/namespaces/inkscape"
   xmlns:sodipodi="http://sodipodi.sourceforge.net/DTD/sodipodi-0.dtd"
   xmlns="http://www.w3.org/2000/svg"
   xmlns:svg="http://www.w3.org/2000/svg">
  <defs
     id="defs31" />
  <sodipodi:namedview
     id="namedview31"
     pagecolor="#ffffff"
     bordercolor="#000000"
     borderopacity="0.25"
     inkscape:showpageshadow="2"
     inkscape:pageopacity="0.0"
     inkscape:pagecheckerboard="0"
     inkscape:deskcolor="#d1d1d1"
     inkscape:zoom="0.74819127"
     inkscape:cx="401.63526"
     inkscape:cy="348.84128"
     inkscape:window-width="1294"
     inkscape:window-height="704"
     inkscape:window-x="72"
     inkscape:window-y="27"
     inkscape:window-maximized="1"
     inkscape:current-layer="svg31" />
  <path
     id="e9a96f1c-287a-42d8-bbee-a97ef2edbe89-272"
     data-name="Path 22"
     d="M867.81723,266.44171h-3.82147V161.75244a60.59373,60.59373,0,0,0-60.59369-60.59371H581.59622a60.5937,60.5937,0,0,0-60.5937,60.59371V736.09587a60.59371,60.59371,0,0,0,60.5937,60.5937H803.402a60.59371,60.59371,0,0,0,60.59275-60.5937V340.96159h3.82147Z"
     transform="translate(-198 -101.15873)"
     fill="#e6e6e6" />
  <path
     id="bb6cf65b-d1a0-4b47-beae-738e5a961a87-273"
     data-name="Path 23"
     d="M805.847,116.91723H776.89634a21.49818,21.49818,0,0,1-19.90685,29.61745h-127.07a21.4982,21.4982,0,0,1-19.905-29.61745H582.97278A45.25079,45.25079,0,0,0,537.722,162.168V735.67748a45.25081,45.25081,0,0,0,45.25079,45.25077H805.847a45.25079,45.25079,0,0,0,45.25078-45.25077h0V162.16709a45.25078,45.25078,0,0,0-45.2508-45.24986Z"
     transform="translate(-198 -101.15873)"
     fill="#fff" />
  <path
     d="M626.99407,250.68916a8.60557,8.60557,0,0,1-6.42719-2.7982,10.72149,10.72149,0,0,1-2.54354-8.20821,12.4083,12.4083,0,0,1,3.3276-7.48316,9.99135,9.99135,0,0,1,7.23642-3.2061,9.01536,9.01536,0,0,1,6.721,2.96234,10.52249,10.52249,0,0,1,2.58867,8.04429l0,0a11.95108,11.95108,0,0,1-3.59235,7.84064A10.62651,10.62651,0,0,1,626.99407,250.68916Zm1.59329-18.07973c-3.53906,0-6.59713,3.24627-6.962,7.39046a7.11514,7.11514,0,0,0,1.60818,5.44892,4.964,4.964,0,0,0,3.76056,1.6244c3.30951,0,6.85055-2.28529,7.30105-7.39085a6.90374,6.90374,0,0,0-1.65351-5.28454A5.43891,5.43891,0,0,0,628.58736,232.60943Zm7.50873,7.23184h0Z"
     transform="translate(-198 -101.15873)"
     fill="#3f3d56"
     id="path1" />
  <path
     d="M627.11159,261.53694a19.72992,19.72992,0,0,1-19.93616-21.85336,23.96089,23.96089,0,0,1,23.44137-21.538c6.50929,0,11.86513,2.0914,15.48846,6.04811,3.4358,3.75184,5.04462,9.03346,4.53012,14.8718-.487,5.53073-2.83343,8.41125-4.71617,9.8538a7.92326,7.92326,0,0,1-5.99839,1.71947c-2.97625-.52769-6.26788-3.23126-5.75006-9.11413l.95825-10.87625a1.808,1.808,0,0,1,3.602.31737l-.95823,10.87608c-.25744,2.92466.78153,4.88233,2.77919,5.23649A4.36287,4.36287,0,0,0,643.72,246.049c1.30644-1.001,2.94177-3.08014,3.31337-7.30075.43056-4.88585-.81253-9.07424-3.59484-12.1125-2.92008-3.18872-7.35377-4.87421-12.82175-4.87421A20.33216,20.33216,0,0,0,610.77758,239.999a16.11626,16.11626,0,0,0,16.334,17.922,18.145,18.145,0,0,0,8.25818-1.49734,1.808,1.808,0,0,1,1.40067,3.33367A21.691,21.691,0,0,1,627.11159,261.53694Z"
     transform="translate(-198 -101.15873)"
     fill="#3f3d56"
     id="path2" />
  <path
     d="M608.02218,519.964a1.808,1.808,0,0,1-1.27843-3.08637l11.75182-11.75182a1.808,1.808,0,0,1,2.55686,2.5568l-11.75182,11.75182A1.80221,1.80221,0,0,1,608.02218,519.964Zm29.83154-4.51993a1.808,1.808,0,0,1-1.27843-3.08637l9.94385-9.94385a1.808,1.808,0,0,1,2.55686,2.5568l-9.94385,9.94385A1.80217,1.80217,0,0,1,637.85372,515.44408Zm-5.42391,0a1.80221,1.80221,0,0,1-1.27844-.52957l-7.23189-7.23189a1.808,1.808,0,1,1,2.55687-2.5568l7.23189,7.23189a1.808,1.808,0,0,1-1.27843,3.08637Z"
     transform="translate(-198 -101.15873)"
     fill="#3f3d56"
     id="path3" />
  <path
     d="M650.50953,505.50023a4.51993,4.51993,0,1,1,4.51993-4.51993A4.525,4.525,0,0,1,650.50953,505.50023Zm0-5.42392a.904.904,0,1,0,.904.904A.905.905,0,0,0,650.50953,500.07631Z"
     transform="translate(-198 -101.15873)"
     fill="#3f3d56"
     id="path4" />
  <path
     d="M635.14176,520.868a4.51993,4.51993,0,1,1,4.51994-4.51993A4.525,4.525,0,0,1,635.14176,520.868Zm0-5.42392a.904.904,0,1,0,.904.904A.905.905,0,0,0,635.14176,515.44408Z"
     transform="translate(-198 -101.15873)"
     fill="#3f3d56"
     id="path5" />
  <path
     d="M622.486,508.21219a4.51993,4.51993,0,1,1,4.51993-4.51993A4.525,4.525,0,0,1,622.486,508.21219Zm0-5.42392a.904.904,0,1,0,.904.904A.905.905,0,0,0,622.486,502.78827Z"
     transform="translate(-198 -101.15873)"
     fill="#3f3d56"
     id="path6" />
  <path
     d="M605.31022,525.38793a4.51993,4.51993,0,1,1,4.51993-4.51993A4.525,4.525,0,0,1,605.31022,525.38793Zm0-5.42392a.904.904,0,1,0,.904.904A.905.905,0,0,0,605.31022,519.964Z"
     transform="translate(-198 -101.15873)"
     fill="#3f3d56"
     id="path7" />
  <path
     d="M776.89359,664.81185H738.92616a6.33508,6.33508,0,0,1-6.3279-6.32791V631.36436a6.33508,6.33508,0,0,1,6.3279-6.32791h37.96743a6.33509,6.33509,0,0,1,6.3279,6.32791v27.11958A6.33509,6.33509,0,0,1,776.89359,664.81185ZM738.92616,628.6524a2.715,2.715,0,0,0-2.712,2.712v27.11958a2.715,2.715,0,0,0,2.712,2.712h37.96743a2.715,2.715,0,0,0,2.712-2.712V631.36436a2.715,2.715,0,0,0-2.712-2.712Z"
     transform="translate(-198 -101.15873)"
     fill="#3f3d56"
     id="path8" />
  <path
     d="M757.90987,648.54009a1.805,1.805,0,0,1-1.11-.38087l-16.27175-12.65581a1.80795,1.80795,0,1,1,2.22-2.8542l15.16177,11.79243,15.16177-11.79243a1.80795,1.80795,0,1,1,2.22,2.8542l-16.27175,12.65581A1.805,1.805,0,0,1,757.90987,648.54009Z"
     transform="translate(-198 -101.15873)"
     fill="#3f3d56"
     id="path9" />
  <path
     d="M961.83465,689.84127l-209.14131.08288a1,1,0,0,1,0-2l209.14131-.08288a1,1,0,0,1,0,2Z"
     transform="translate(-198 -101.15873)"
     fill="#ccc"
     id="path10" />
  <circle
     cx="761.05118"
     cy="587.68253"
     r="14"
     fill="#6c63ff"
     id="circle10" />
  <path
     d="M956.83465,421.84127l-211.14131.08288a1,1,0,0,1,0-2l211.14131-.08288a1,1,0,0,1,0,2Z"
     transform="translate(-198 -101.15873)"
     fill="#ccc"
     id="path11" />
  <circle
     cx="761.05118"
     cy="320.68253"
     r="14"
     fill="#6c63ff"
     id="circle11" />
  <path
     d="M416.26772,284.84127l211.1413.08288a1,1,0,0,0,0-2l-211.1413-.08288a1,1,0,1,0,0,2Z"
     transform="translate(-198 -101.15873)"
     fill="#ccc"
     id="path12" />
  <circle
     cx="216.05118"
     cy="183.68253"
     r="14"
     fill="#6c63ff"
     id="circle12" />
  <path
     d="M416.26772,555.84127l211.1413.08288a1,1,0,0,0,0-2l-211.1413-.08288a1,1,0,1,0,0,2Z"
     transform="translate(-198 -101.15873)"
     fill="#ccc"
     id="path13" />
  <circle
     cx="216.05118"
     cy="454.68253"
     r="14"
     fill="#6c63ff"
     id="circle13" />
  <path
     d="M757.90987,689.92415a45,45,0,1,1,45-45A45.05109,45.05109,0,0,1,757.90987,689.92415Zm0-88a43,43,0,1,0,43,43A43.04864,43.04864,0,0,0,757.90987,601.92415Z"
     transform="translate(-198 -101.15873)"
     fill="#ccc"
     id="path14" />
  <path
     d="M627.90987,555.92415a45,45,0,1,1,45-45A45.05109,45.05109,0,0,1,627.90987,555.92415Zm0-88a43,43,0,1,0,43,43A43.04864,43.04864,0,0,0,627.90987,467.92415Z"
     transform="translate(-198 -101.15873)"
     fill="#ccc"
     id="path15" />
  <path
     d="M748.90987,421.92415a45,45,0,1,1,45-45A45.05109,45.05109,0,0,1,748.90987,421.92415Zm0-88a43,43,0,1,0,43,43A43.04864,43.04864,0,0,0,748.90987,333.92415Z"
     transform="translate(-198 -101.15873)"
     fill="#ccc"
     id="path16" />
  <path
     d="M628.90987,284.84127a45,45,0,1,1,45-45A45.0511,45.0511,0,0,1,628.90987,284.84127Zm0-88a43,43,0,1,0,43,43A43.04864,43.04864,0,0,0,628.90987,196.84127Z"
     transform="translate(-198 -101.15873)"
     fill="#ccc"
     id="path17" />
  <path
     d="M346.5023,589.73817a11.01912,11.01912,0,0,1-4.302-7.88086,10.26913,10.26913,0,0,1-.02539-1.08007l-46.56811-31.36231a8.55177,8.55177,0,0,1-3.33667-9.66992l22.25684-55.2959a9.69886,9.69886,0,0,1,18.02343,7.1709l-17.96972,45.69043L350.8419,570.246a10.46216,10.46216,0,0,1,1.45312-.22461,11.00091,11.00091,0,0,1,2.9834,21.76269,11.40682,11.40682,0,0,1-2.14673.20606A10.86469,10.86469,0,0,1,346.5023,589.73817Z"
     transform="translate(-198 -101.15873)"
     fill="#a0616a"
     id="path18" />
  <path
     d="M295.62572,517.00863a4.8117,4.8117,0,0,1,.10142-4.00962l10.62461-21.716a13.37737,13.37737,0,0,1,25.5217,8.02829l-3.879,23.94191a4.81688,4.81688,0,0,1-6.21361,3.82l-23.18522-7.368A4.81145,4.81145,0,0,1,295.62572,517.00863Z"
     transform="translate(-198 -101.15873)"
     fill="#6c63ff"
     id="path19" />
  <polygon
     points="170.908 683.95 183.168 683.95 189 636.662 170.906 636.663 170.908 683.95"
     fill="#a0616a"
     id="polygon19" />
  <path
     d="M365.78058,781.10634l24.1438-.001h.001a15.38605,15.38605,0,0,1,15.38647,15.38623v.5l-39.53051.00147Z"
     transform="translate(-198 -101.15873)"
     fill="#2f2e41"
     id="path20" />
  <polygon
     points="51.025 675.264 62.899 678.315 80.319 633.967 62.794 629.464 51.025 675.264"
     fill="#a0616a"
     id="polygon20" />
  <path
     d="M246.99251,771.76721l23.384,6.00926.00095.00024a15.386,15.386,0,0,1,11.072,18.73209l-.12447.48426L243.03848,787.154Z"
     transform="translate(-198 -101.15873)"
     fill="#2f2e41"
     id="path21" />
  <circle
     cx="137.01471"
     cy="334.98029"
     r="24.56103"
     fill="#a0616a"
     id="circle21" />
  <path
     d="M322.59238,538.2997a88.72978,88.72978,0,0,1-14.73608-20.23438,32.71635,32.71635,0,0,1-1.54028-26.47656A33.44218,33.44218,0,0,1,325.30674,472.244a32.87972,32.87972,0,0,1,41.6123,15.44629c6.14576,12.02734,8.5542,23.78613,7.1587,34.95215-2.66822,21.3457-4.23023,32.37891-4.64258,32.791l-.13721.13769-45.68945,2.03027Z"
     transform="translate(-198 -101.15873)"
     fill="#6c63ff"
     id="path22" />
  <path
     d="M325.306,551.69409l40.88708-2.03514a4,4,0,0,1,4.183,3.63962l18.8086,210.83184a4,4,0,0,1-4.06926,4.35453l-15.97385-.33987a4,4,0,0,1-3.79715-3.03562L334.82823,642.1471a4,4,0,0,0-7.5156-.70944L269.48285,767.03672a4,4,0,0,1-4.643,2.19755l-16.0757-4.19366a3.9948,3.9948,0,0,1-2.90489-4.693c5.28922-24.96831,36.97167-167.9555,76.86151-207.5331A3.94084,3.94084,0,0,1,325.306,551.69409Z"
     transform="translate(-198 -101.15873)"
     fill="#2f2e41"
     id="path23" />
  <path
     d="M402.73325,575.3661a11.01841,11.01841,0,0,1-6.75781-5.91308,10.35271,10.35271,0,0,1-.39673-1.00391l-54.531-13.36328a8.55185,8.55185,0,0,1-6.469-7.92481l1.80469-59.57812a9.69885,9.69885,0,0,1,19.39087.50879l-1.09644,49.084,45.40088,18.39746a10.744,10.744,0,0,1,1.28516-.71289h.00049a11.01049,11.01049,0,1,1,1.36889,20.50586Z"
     transform="translate(-198 -101.15873)"
     fill="#a0616a"
     id="path24" />
  <path
     d="M330.56717,517.26975a4.81171,4.81171,0,0,1-1.25291-3.81019L332.017,489.4354a13.37737,13.37737,0,0,1,26.7351-1.02221l4.39856,23.85193a4.81687,4.81687,0,0,1-4.567,5.6871l-24.31266.85825A4.81149,4.81149,0,0,1,330.56717,517.26975Z"
     transform="translate(-198 -101.15873)"
     fill="#6c63ff"
     id="path25" />
  <path
     d="M299.82094,468.56546l2.56631-8.29416,1.75489,9.30867,14.413-.38175-.06644-9.17783,5.479,9.05734,13.0608-2.88663c-2.79026-3.718-5.6137-7.49394-7.3982-11.87661s-2.43414-9.52219-.76677-13.95851c4.12231-10.96814,19.75146-7.89894,28.29987-7.99195,2.49388-.02713,5.30932-.20677,6.94257-2.24571,1.22984-1.53532,1.43135-3.73159,1.369-5.762-.321-10.45468-6.59769-20.42873-15.47137-24.58506a23.981,23.981,0,0,0-13.9051-1.88355,25.13925,25.13925,0,0,0-7.09156,2.23369c-1.99719.97562-4.09482,3.29907-6.24511,3.23616-1.80717-.05286-4.19946-1.935-6.16588-2.2566a19.05966,19.05966,0,0,0-7.1235.24862,22.37477,22.37477,0,0,0-12.07628,7.22647c-6.68033,7.76217-8.66524,19.20034-7.50091,29.73068s5.10364,20.43362,8.99909,30.16588"
     transform="translate(-198 -101.15873)"
     fill="#2f2e41"
     id="path26" />
  <path
     d="M1001,798.84127H199a1,1,0,0,1,0-2h802a1,1,0,0,1,0,2Z"
     transform="translate(-198 -101.15873)"
     fill="#e6e6e6"
     id="path27" />
  <path
     d="M987.47028,786.44789a19.3089,19.3089,0,0,0,6.37547-9.59647c.81354-3.81863-.81353-8.3014-4.44955-9.77908-4.08429-1.57729-8.45082,1.26183-11.75479,4.11747s-7.106,6.12644-11.43933,5.51214a17.38311,17.38311,0,0,0,5.32951-16.28725,6.64138,6.64138,0,0,0-1.49426-3.32056c-2.258-2.42405-6.37547-1.37806-9.09834.5313-8.63346,6.07658-11.04087,17.79816-11.07407,28.35763-.88-3.81863-.14942-7.78672-.166-11.622s-1.09579-8.3014-4.38314-10.3269a13.28241,13.28241,0,0,0-6.64112-1.57728c-3.885-.13286-8.20179.24908-10.85824,3.08809-3.32056,3.51979-2.44061,9.447.43168,13.28225s7.22222,6.309,11.2235,8.99869a24.77172,24.77172,0,0,1,8.03575,7.65387,7.32233,7.32233,0,0,1,.5977,1.36145h24.32312A67.68756,67.68756,0,0,0,987.47028,786.44789Z"
     transform="translate(-198 -101.15873)"
     fill="#f2f2f2"
     id="path28" />
  <path
     d="M734.40527,403.3608a2.7185,2.7185,0,0,1-2.47036-3.82532l3.12891-6.981a23.40683,23.40683,0,1,1,8.84917,4.92855l-7.98548,5.40606A2.71035,2.71035,0,0,1,734.40527,403.3608Zm16.14591-48.267a20.04564,20.04564,0,0,0-12.48787,35.73546l.98571.78613-3.36661,7.51194,7.72581-5.2303.76284.25622a20.05171,20.05171,0,1,0,6.38012-39.05945Z"
     transform="translate(-198 -101.15873)"
     fill="#3f3d56"
     id="path29" />
  <circle
     cx="552.55118"
     cy="272.90814"
     r="3.25253"
     fill="#3f3d56"
     id="circle29" />
  <circle
     cx="543.33569"
     cy="272.90814"
     r="3.25253"
     fill="#3f3d56"
     id="circle30" />
  <circle
     cx="561.76668"
     cy="272.90814"
     r="3.25253"
     fill="#3f3d56"
     id="circle31" />
  <path
     style="fill:#000000;stroke-width:8.52857"
     d="m 368.331,675.6702 c -9.34492,-3.85896 -18.3127,-12.11324 -23.27777,-21.42573 l -3.56301,-6.68279 -0.36817,-95.81003 -0.36816,-95.81004 49.82076,-0.42204 49.82076,-0.42204 7.51146,-3.52205 c 10.56602,-4.9543 17.81176,-12.02276 22.88226,-22.3224 3.82317,-7.76597 4.35675,-10.16622 4.35675,-19.59848 0,-9.45035 -0.53061,-11.82648 -4.39293,-19.67196 -8.07913,-16.41104 -22.61335,-25.38212 -41.05,-25.33764 -25.82863,0.0623 -44.77464,19.01846 -44.77464,44.79856 0,16.44259 6.75617,29.66345 19.45821,38.07694 l 6.39465,4.23564 H 375.80156 340.82194 V 318.17423 184.59232 l 50.48727,-0.40789 50.48728,-0.40789 8.91914,-4.39293 c 16.54106,-8.14693 25.36141,-22.57466 25.30873,-41.39825 -0.0468,-16.72356 -9.50512,-31.96902 -24.9365,-40.194078 -5.96504,-3.179417 -8.11828,-3.560437 -20.04835,-3.547595 -11.46113,0.01234 -14.31778,0.481369 -20.04835,3.291728 -21.72106,10.652345 -31.51795,37.769075 -21.55682,59.666935 4.07416,8.95635 11.91909,17.40958 20.20047,21.76685 l 5.32643,2.8025 h -37.06965 -37.06965 v -64.77286 c 0,-61.8544 0.12245,-65.100134 2.71768,-72.036517 3.81883,-10.206722 11.67496,-18.589904 22.34272,-23.841624 8.47112,-4.17032 9.71703,-4.394902 26.99492,-4.866 l 18.1139,-0.493893 v 8.492416 c 0,9.045656 1.76566,12.720595 8.61181,17.924124 3.28658,2.498019 6.18507,2.597301 75.82739,2.597301 70.98349,0 72.48454,-0.05421 76.18372,-2.751359 5.99716,-4.372643 10.10515,-13.494333 9.21097,-20.452737 l -0.74905,-5.82886 19.09121,0.493657 c 18.40769,0.475982 19.41041,0.650794 28.00638,4.882575 9.69341,4.772047 16.33624,11.463215 21.31486,21.46995 l 3.0829,6.196444 0.35906,134.658083 0.35903,134.65808 -41.79229,-0.0591 -41.79231,-0.0591 4.83548,-2.55537 c 7.19645,-3.80306 16.67242,-15.1029 19.94855,-23.78814 4.04289,-10.71799 3.24323,-26.0593 -1.88006,-36.06802 -8.13407,-15.89058 -22.40673,-24.87687 -39.61093,-24.93972 -13.56181,-0.0495 -22.21823,3.1183 -31.36528,11.47819 -10.63027,9.71546 -14.60348,18.71138 -14.68335,33.24517 -0.0563,10.23624 0.38053,12.28502 4.33036,20.31214 5.27312,10.7164 13.63618,18.56318 23.86244,22.38931 6.87442,2.57206 10.23326,2.71769 62.68062,2.71769 h 55.41696 V 453.76091 586.7483 h -37.68526 -37.68525 l 6.39133,-4.05327 c 8.61734,-5.46495 13.78714,-11.20869 18.0058,-20.00475 2.95883,-6.16927 3.52562,-9.182 3.52562,-18.7399 0,-10.17775 -0.46789,-12.33925 -4.39994,-20.32638 -4.78528,-9.72027 -11.62315,-16.50888 -21.56191,-21.40653 -5.04579,-2.48649 -8.33649,-3.01363 -18.8128,-3.01363 -11.16886,0 -13.60493,0.44573 -20.23748,3.70289 -8.79802,4.32059 -17.55921,13.27489 -21.64801,22.12517 -2.31701,5.01521 -2.88735,8.75669 -2.88815,18.94658 -9.4e-4,11.93112 0.27595,13.20811 4.58875,21.16282 5.05991,9.33272 12.21729,15.95322 22.24785,20.57902 6.4246,2.96284 7.77111,3.04187 58.36788,3.42579 l 51.79157,0.39296 v 26.62216 c 0,23.58187 -0.31347,27.46001 -2.74495,33.95872 -3.62871,9.69859 -12.83552,19.75323 -22.37883,24.43964 l -7.62186,3.74284 -121.62665,0.317 -121.62665,0.31699 z"
     id="path31" />
  <path
     style="fill:#000000;stroke-width:8.52857"
     d="m 369.24321,692.94902 c -22.13239,-5.96052 -37.99325,-22.00471 -43.80281,-44.30914 -1.6744,-6.42845 -1.9937,-22.48617 -1.9937,-100.2642 v -92.60987 h 7.98522 7.98523 l 0.36825,95.89794 0.36826,95.89793 3.18396,5.9735 c 1.75118,3.28542 4.45771,7.70162 6.01451,9.81375 3.4908,4.73603 12.85085,11.77231 14.39262,10.81944 0.62436,-0.38588 1.13521,-0.0291 1.13521,0.79272 0,0.82188 0.60145,1.1226 1.33655,0.66828 0.73511,-0.45432 1.33656,-0.26049 1.33656,0.43073 0,3.78571 14.05294,4.24722 129.32698,4.24722 129.70765,0 124.75906,0.30734 137.17419,-8.51948 6.6571,-4.73303 15.97876,-16.37557 14.72954,-18.39686 -0.39137,-0.63325 -0.14604,-1.15135 0.54519,-1.15135 2.77103,0 4.24722,-12.98057 4.24722,-37.34716 v -25.471 h 6.0145 6.01451 v 24.54387 c 0,13.49913 -0.61391,27.78097 -1.36424,31.73743 -4.38471,23.12052 -21.59765,41.21605 -45.00532,47.31297 -11.07635,2.88503 -239.25824,2.82412 -249.99243,-0.0667 z"
     id="path32" />
  <path
     style="fill:#000000;stroke-width:8.52857"
     d="M 323.4467,318.10048 V 184.44481 h 8.01934 8.01934 v 133.65567 133.65566 h -8.01934 -8.01934 z"
     id="path33" />
  <path
     style="fill:#000000;stroke-width:8.52857"
     d="m 653.27296,183.4424 -0.36505,-134.658083 -3.77138,-7.351062 c -2.07425,-4.043084 -5.38223,-9.0859 -7.35106,-11.206258 -4.50803,-4.854994 -14.96004,-11.660836 -16.47248,-10.726091 -0.62758,0.387861 -1.14105,0.146508 -1.14105,-0.536341 0,-2.201517 -14.96058,-4.247419 -30.47563,-4.167624 l -15.10521,0.07769 0.8813,5.87695 c 0.68553,4.571432 0.24091,7.199829 -2.00151,11.832045 -5.53423,11.432199 -1.11756,10.802643 -78.93527,11.251486 -48.17884,0.277888 -70.46891,-0.05592 -74.28576,-1.112487 -7.90297,-2.187667 -12.59042,-9.774344 -12.59042,-20.3777 v -7.860808 l -16.37282,0.588469 c -20.02,0.719554 -23.08008,1.254103 -31.44509,5.492975 -6.84701,3.469642 -19.55539,16.230701 -18.25656,18.332244 0.40752,0.659394 0.0685,1.198898 -0.75336,1.198898 -0.82188,0 -1.1226,0.60145 -0.66828,1.336556 0.45432,0.735106 0.28429,1.336557 -0.37784,1.336557 -3.61115,0 -4.30011,11.958372 -4.30011,74.637314 v 64.30301 l -8.01934,-0.11289 -8.01934,-0.11288 V 118.9923 c 0,-36.214822 0.56498,-65.519319 1.34362,-69.691418 2.78068,-14.899434 13.65031,-31.023605 26.29437,-39.005448 2.81141,-1.7747674 9.02019,-4.6669185 13.79727,-6.4270026 l 8.68562,-3.20015309 h 120.95837 c 115.0482,0 121.31756,0.12321141 128.30944,2.52166069 15.06572,5.1680459 28.20318,15.867068 35.14525,28.621934 7.01653,12.891686 7.5833,18.763475 7.6048,78.788187 0.0172,48.10726 0.27524,55.13296 2.02459,55.13296 1.73348,0 2.00484,4.97496 2.00484,36.75531 0,31.78035 -0.27136,36.75531 -2.00484,36.75531 -1.73677,0 -2.00483,5.27196 -2.00483,39.42842 v 39.42842 h -5.98359 -5.98361 z"
     id="path34" />
  <path
     style="fill:#280b0b;stroke-width:8.52857"
     d="M 653.57619,453.76097 V 320.77359 h 6.0145 6.01451 v 132.98738 132.98739 h -6.01451 -6.0145 z"
     id="path35" />
  <path
     style="fill:#666666;stroke-width:8.52857"
     d="m 367.37668,673.94514 c -9.4867,-4.66345 -17.98085,-12.75891 -22.32796,-21.27994 -2.5499,-4.99821 -2.66247,-8.63395 -3.10221,-100.19848 l -0.45629,-95.01207 11.9002,-0.84442 c 6.5451,-0.46443 28.96629,-0.84442 49.82484,-0.84442 h 37.92465 l 7.70255,-3.88823 c 9.41921,-4.75482 17.13829,-12.27109 22.25284,-21.66821 4.43658,-8.15144 6.07572,-23.30629 3.53675,-32.69935 -3.74492,-13.85457 -17.10338,-27.82661 -30.14789,-31.53264 -8.33322,-2.36753 -23.11331,-1.96235 -31.48816,0.86319 -10.58413,3.57091 -22.64103,15.87477 -25.93442,26.46562 -3.38191,10.87554 -2.60769,28.69746 1.6204,37.30002 2.80181,5.70064 10.18316,13.99725 16.96295,19.0663 2.39669,1.79194 -0.8168,2.00301 -31.07494,2.04113 l -33.74805,0.0425 V 318.96488 186.17361 l 10.22583,-0.86439 c 5.62421,-0.47543 28.5455,-0.86441 50.9362,-0.86441 h 40.71037 l 8.20643,-4.34381 c 17.38543,-9.20241 25.2358,-22.17601 25.37275,-41.93124 0.0667,-9.62187 -0.41665,-11.85551 -4.25084,-19.64385 -4.57144,-9.28591 -12.5726,-17.48283 -21.30186,-21.823018 -3.97761,-1.977665 -8.07099,-2.47565 -20.34959,-2.47565 -14.32582,0 -15.79134,0.247458 -21.56431,3.641194 -18.80211,11.053124 -27.93529,33.670744 -21.85895,54.132014 2.81976,9.49517 9.64335,18.86294 18.03483,24.75916 l 7.13319,5.01209 h -35.64703 -35.64702 l 0.13345,-30.40666 c 0.0734,-16.72367 0.52798,-46.94655 1.01018,-67.161973 l 0.87674,-36.755307 3.96327,-7.169586 c 4.64204,-8.397477 12.04931,-14.86984 22.17743,-19.3783 5.9538,-2.650292 10.29247,-3.370822 24.14995,-4.010618 l 16.89226,-0.779913 0.52794,9.343262 c 0.49162,8.700311 0.87127,9.686602 5.51713,14.332652 l 4.98918,4.98939 h 73.88107 c 83.23745,0 78.3168,0.610515 83.63571,-10.376871 1.63518,-3.377834 2.82588,-8.457137 2.82588,-12.054668 v -6.21717 l 17.70938,0.730843 c 16.71164,0.689669 18.25249,0.991136 27.34957,5.350976 10.14354,4.861363 16.29118,10.953541 21.50613,21.31209 2.68958,5.34237 2.73955,7.553795 3.16841,140.203403 l 0.43573,134.7754 -23.93814,-0.86736 c -13.16598,-0.47706 -30.84864,-0.86737 -39.29482,-0.86737 h -15.35667 l 5.3434,-3.87074 c 7.28714,-5.27878 16.05782,-18.71382 17.20326,-26.35216 2.69534,-17.97379 -1.84227,-33.39737 -13.01131,-44.22619 -9.25568,-8.97372 -16.81237,-11.7607 -31.85574,-11.74864 -15.18562,0.0122 -21.74298,2.62112 -32.20821,12.81457 -9.9224,9.66471 -12.48532,16.3366 -12.52987,32.61818 -0.0338,12.34433 0.26553,13.91096 3.91727,20.50356 4.75459,8.58359 12.66501,16.75786 20.03559,20.70387 5.28383,2.82881 6.82935,2.90831 63.88917,3.2861 l 58.47435,0.38716 v 132.93436 132.93437 l -36.42117,-0.0701 c -34.6911,-0.0668 -36.26245,-0.17788 -33.07977,-2.33897 7.24534,-4.91973 14.40536,-12.52243 18.1373,-19.25864 3.63273,-6.55716 3.91588,-8.083 3.91588,-21.1021 0,-13.01018 -0.28483,-14.54795 -3.9049,-21.0819 -4.86711,-8.78479 -10.99062,-15.16411 -19.17303,-19.97396 -5.92864,-3.48502 -7.29251,-3.71878 -21.69672,-3.71878 -17.70433,0 -22.56562,1.77865 -32.78081,11.99383 -9.26946,9.26947 -11.74399,15.32163 -12.39949,30.32643 -0.51571,11.80488 -0.258,13.58709 2.99578,20.71663 4.31056,9.44511 12.46362,18.15446 21.4679,22.93266 l 6.68278,3.54627 52.79399,0.83875 c 29.03669,0.4613 53.01413,0.91991 53.2832,1.01915 0.26908,0.0992 0.0663,12.35978 -0.45058,27.24568 -0.83986,24.18708 -1.26505,27.77593 -3.9982,33.74805 -4.19562,9.16771 -11.10082,16.70947 -19.6189,21.42748 l -7.16234,3.9671 -122.29493,0.66828 -122.29493,0.66828 z"
     id="path36" />
</svg>
